<svg xmlns="http://www.w3.org/2000/svg" fill="none" viewBox="0 0 87 21" height="21" width="87">
<path fill="#46413C" d="M11.5296 5.07831V15.8735C11.5296 16.4747 11.6481 17.0701 11.8782 17.6255C12.1082 18.181 12.4455 18.6857 12.8706 19.1108C13.2957 19.536 13.8005 19.8732 14.3559 20.1033C14.9114 20.3334 15.5067 20.4518 16.108 20.4518C16.7092 20.4518 17.3045 20.3334 17.86 20.1033C18.4155 19.8732 18.9202 19.536 19.3453 19.1108C19.7705 18.6857 20.1077 18.181 20.3378 17.6255C20.5679 17.0701 20.6863 16.4747 20.6863 15.8735V5.07831C20.6863 3.86407 20.2039 2.69956 19.3453 1.84096C18.4867 0.982357 17.3222 0.5 16.108 0.5C14.8937 0.5 13.7292 0.982357 12.8706 1.84096C12.012 2.69956 11.5296 3.86407 11.5296 5.07831ZM14.8068 15.8735V5.07831C14.8042 4.91468 14.8342 4.75218 14.8951 4.60026C14.9559 4.44835 15.0464 4.31006 15.1612 4.19344C15.276 4.07683 15.4129 3.98423 15.5639 3.92102C15.7148 3.85782 15.8768 3.82528 16.0405 3.8253H16.1562C16.3157 3.82016 16.4746 3.8465 16.6239 3.90283C16.7733 3.95915 16.91 4.04435 17.0264 4.15356C17.1427 4.26277 17.2364 4.39384 17.3021 4.53929C17.3678 4.68473 17.4042 4.84169 17.4092 5.0012V15.8735C17.4042 16.2043 17.2706 16.5201 17.0367 16.754C16.8028 16.9879 16.4869 17.1215 16.1562 17.1265C15.9853 17.133 15.8148 17.1056 15.6544 17.0461C15.4941 16.9866 15.347 16.8961 15.2217 16.7797C15.0964 16.6634 14.9952 16.5234 14.924 16.3679C14.8528 16.2124 14.813 16.0444 14.8068 15.8735ZM47.0959 0.740964H37.8429V4.01807H40.8309V20.1145H44.108V4.01807H47.0959V0.740964ZM56.7345 0.740964V15.8735C56.7345 16.2058 56.6025 16.5245 56.3675 16.7595C56.1325 16.9945 55.8138 17.1265 55.4815 17.1265C55.1491 17.1265 54.8304 16.9945 54.5954 16.7595C54.3605 16.5245 54.2284 16.2058 54.2284 15.8735V0.740964H50.8549V15.8735C50.8549 17.1005 51.3424 18.2773 52.21 19.1449C53.0777 20.0126 54.2544 20.5 55.4815 20.5C56.7085 20.5 57.8853 20.0126 58.7529 19.1449C59.6205 18.2773 60.108 17.1005 60.108 15.8735V0.740964H56.7345ZM86.7104 4.01807V0.740964H78.614V20.1145H86.7104V16.8373H81.8911V11.8253H84.9754V8.54819H81.8911V4.01807H86.7104ZM34.7586 20.1145H31.2887L28.879 10.9578C29.4802 10.8389 30.0211 10.5138 30.4082 10.0387C30.7953 9.56359 31.0045 8.96826 30.9995 8.35542V5.36747C31.0034 5.19405 30.973 5.02157 30.9102 4.85989C30.8473 4.69822 30.7533 4.5505 30.6333 4.42519C30.5134 4.29988 30.3699 4.19942 30.2111 4.12957C30.0524 4.05972 29.8814 4.02183 29.708 4.01807H28.3971V20.1145H25.12V0.740964H29.6501C30.8466 0.732679 31.9992 1.19117 32.8631 2.01904C33.7269 2.84691 34.234 3.97895 34.2766 5.1747V8.25904C34.3199 9.05938 34.1771 9.85887 33.8593 10.5947C33.5416 11.3305 33.0576 11.9827 32.4453 12.5L34.7586 20.1145ZM71.2887 0.740964V11.3434L67.9152 0.740964H64.5417V20.1145H67.9152V10.6687L70.9995 20.1145H74.6622V0.740964H71.2887ZM0.445312 1.03012V20.4036H3.91519V12.1145H7.09592V8.83735H3.91519V4.30723H8.92724V1.03012H0.445312Z"></path>
</svg>
