<svg xmlns="http://www.w3.org/2000/svg" fill="none" viewBox="0 0 57 31" height="31" width="57">
<path fill="#46413C" d="M9.68066 0.596945V1.19624L10.2359 1.32844C11.1172 1.53995 11.223 2.05993 11.5667 3.69037L12.448 8.29083L9.97149 21.7133L6.56961 4.84489C6.18184 2.99412 6.05845 1.61927 7.45093 1.31962L8.09429 1.18743V0.596945H0.0390625V1.19624L0.858686 1.39013C1.67831 1.60165 2.02202 1.98942 2.57725 4.52761L8.04141 30.3942H9.45152L13.109 10.8555L17.163 30.3942H18.2823L23.5702 5.32961C24.1695 2.44771 24.4515 1.62809 25.465 1.36369L26.2847 1.15217V0.596945H20.3093V1.19624L21.1906 1.3725C22.4774 1.62808 22.7858 2.44771 22.1777 5.77908L18.9609 21.7309L15.7 4.86252C15.3475 3.18801 15.136 1.6369 16.5814 1.33725L17.5244 1.16099V0.561693L9.68066 0.596945ZM47.965 0.676263V1.28437L49.0402 1.53995C49.9832 1.75147 50.371 2.09518 50.371 3.30259V24.1721C50.371 26.4988 50.371 29.5482 47.965 29.5482C46.5902 29.5482 45.515 28.3496 45.5943 27.53C45.6824 26.1992 48.0091 26.2785 48.1325 24.1281C48.1827 23.8584 48.1759 23.5813 48.1126 23.3144C48.0493 23.0476 47.9308 22.7969 47.7648 22.5786C47.5987 22.3603 47.3889 22.1791 47.1486 22.0468C46.9084 21.9145 46.6431 21.8339 46.3698 21.8102C45.0391 21.634 43.3998 22.7532 43.3557 24.9918C43.3557 27.8737 45.2065 30.5 48.4321 30.5C52.0015 30.5 54.3369 28.0852 54.3369 23.4495V3.34665C54.3369 2.13925 54.6366 1.75147 55.4915 1.58402L56.4433 1.26674V0.667451L47.965 0.676263ZM33.4674 0.508813C29.8099 0.508813 27.7476 3.56698 27.7476 7.55934C27.7476 15.0065 37.3452 17.8884 37.3452 24.604C37.3452 27.7855 36.0056 29.5482 34.0755 29.5482C31.1936 29.5482 29.1313 26.067 28.6113 20.5147H27.968V30.3149H28.4879C28.9198 28.9048 29.475 28.7638 29.9509 28.7638C30.7706 28.7638 31.6254 30.4824 34.1196 30.4824C37.9533 30.4824 40.4474 27.1774 40.4474 22.6122C40.4474 13.6581 30.8851 11.4636 30.8851 5.0564C30.8851 3.59342 31.317 1.44301 33.4674 1.44301C36.5696 1.44301 37.874 5.5235 38.4204 10.4765H39.0637V0.667451H38.5526C38.3322 1.61046 37.9445 2.0423 37.3892 2.0423C36.3934 2.0423 35.891 0.5 33.5114 0.5L33.4674 0.508813ZM40.3945 8.95182V9.05758V8.96945V8.95182Z"></path>
</svg>
