<svg xmlns="http://www.w3.org/2000/svg" fill="none" viewBox="0 0 46 35" height="35" width="46">
<g clip-path="url(#clip0_1600_178083)">
<path fill="#46413C" d="M6.5681 7.01652C4.7772 8.63793 4.1248 12.3118 7.35354 14.4596L20.2359 23.2971L13.9888 8.9878C12.6802 5.6113 9.09967 4.87512 6.56938 7.01652"></path>
<path fill="#46413C" d="M17.6582 0.0596394C15.5641 0.102493 12.4198 2.59568 13.8205 6.40326L20.2806 21.6374L22.5505 5.61399C23.0763 1.63243 20.0631 -0.206437 17.6601 0.0596394"></path>
<path fill="#46413C" d="M23.5538 5.00237H24.7761C24.7761 5.00237 25.4285 5.00237 25.5174 5.31002C25.0364 5.70274 23.7265 5.75199 23.9018 7.84862L25.9556 21.6353L32.3708 6.36089C33.6827 2.94987 30.9279 0.101697 28.4859 0.0147109C28.372 0.00703565 28.2575 0 28.1385 0C25.9453 0 23.4323 1.5939 23.5551 5.00237"></path>
<path fill="#46413C" d="M32.1109 9.11776L26.043 23.2531L38.9202 14.3689C41.8886 12.2633 41.4102 8.89773 39.7517 7.23347C39.0552 6.45059 37.7759 5.84552 36.4213 5.84552C34.8222 5.84552 33.1074 6.69428 32.1141 9.11584"></path>
<path fill="#46413C" d="M37.4798 16.3817L25.3867 24.8296H40.2768C43.3316 24.8296 45.2952 21.6795 44.4221 18.7891C43.8369 16.972 42.1099 15.5463 40.1009 15.5438C39.256 15.5438 38.3599 15.7996 37.4785 16.3823"></path>
<path fill="#46413C" d="M6.21908 24.8298H20.8898L8.79351 16.3818C5.99906 14.587 2.85666 15.6373 1.722 18.6204C0.762586 22.0315 3.16176 24.833 6.21908 24.833"></path>
<path fill="#46413C" d="M0.710938 30.943C0.710938 32.3815 1.88718 35.0001 6.37723 35.0001C10.5181 35.0001 11.8254 33.1004 11.8254 32.2293H8.62033C8.62033 32.2293 8.46811 33.3806 6.65993 33.3806C4.85176 33.3806 4.36118 31.8698 4.36118 30.9968C4.36118 30.1237 4.85048 28.698 6.65993 28.698C8.46939 28.698 8.62033 29.7003 8.62033 29.7003H11.8254C11.8254 28.8279 10.866 26.9551 6.37723 26.9551C1.88846 26.9551 0.710938 29.7438 0.710938 30.943Z"></path>
<path fill="#46413C" d="M34.3242 30.943C34.3242 32.3815 35.5011 35.0001 39.9905 35.0001C44.1307 35.0001 45.4387 33.1004 45.4387 32.2293H42.2362C42.2362 32.2293 42.0833 33.3806 40.2745 33.3806C38.4657 33.3806 37.9719 31.8705 37.9719 30.9974C37.9719 30.1243 38.4618 28.6986 40.2745 28.6986C42.0871 28.6986 42.2362 29.7003 42.2362 29.7003H45.4393C45.4393 28.8279 44.4799 26.9551 39.9911 26.9551C35.5024 26.9551 34.3249 29.7438 34.3249 30.943"></path>
<path fill="#46413C" d="M20.5868 27.0894V31.9593L16.8566 27.0894H12.6602V34.803H15.5371V29.8768L19.2021 34.803H23.4638V27.0894H20.5868Z"></path>
<path fill="#46413C" d="M29.8041 32.9603V32.9705H27.4069V31.5538H29.8041V31.5582C30.3158 31.5582 30.729 31.8729 30.729 32.2618C30.729 32.6507 30.3158 32.9603 29.8041 32.9603ZM27.4286 28.5898H29.7382V28.593C30.1297 28.593 30.4469 28.8489 30.4469 29.1687C30.4469 29.4885 30.1271 29.7443 29.7382 29.7443V29.7475H27.4286V28.5898ZM32.1579 30.7005C32.6817 30.7005 33.7767 30.0929 33.7767 28.9147C33.7767 27.2377 30.6535 27.088 30.1744 27.088H24.418V34.8023H30.1744C32.942 34.8023 34.0537 33.928 34.0537 32.4678C34.0537 31.0075 32.1579 30.7018 32.1579 30.7018V30.7005Z"></path>
</g>
<defs>
<clipPath id="clip0_1600_178083">
<rect transform="translate(0.710938)" fill="white" height="35" width="44.7297"></rect>
</clipPath>
</defs>
</svg>
