<svg xmlns="http://www.w3.org/2000/svg" fill="none" viewBox="0 0 99 31" height="31" width="99">
<path fill="#46413C" d="M4.10895 10.2776C4.10895 11.4682 4.431 11.5561 5.7973 11.6049V12.0148H0.498015V11.6146C1.59105 11.6146 1.91311 11.4292 1.91311 10.2874V2.59707C1.91311 1.40644 1.59105 1.30885 0.537052 1.26981V0.87944H9.87667V3.3583H9.42775C9.0569 2.11887 8.59821 1.70898 6.40237 1.70898H4.70426C4.15774 1.70898 4.06991 1.79681 4.06991 2.29453V5.86643H6.02176C7.79795 5.86643 8.1688 5.54437 8.36399 4.40254H8.77388V8.38432H8.36399C8.12977 7.05706 7.44662 6.68621 6.02176 6.68621H4.06991V10.2971L4.10895 10.2776ZM15.1857 10.2776C15.1857 11.4682 15.498 11.5561 16.8741 11.6049V12.0148H11.2918V11.6146C12.619 11.6146 12.9899 11.4292 12.9899 10.2874V2.59707C12.9899 1.40644 12.7166 1.30885 11.2918 1.26981V0.87944H16.8741V1.29909C15.5468 1.29909 15.1857 1.47476 15.1857 2.62635V10.2776ZM28.4486 2.83129C28.4486 1.7285 28.1753 1.26981 26.8968 1.13318V0.723291H30.8786V1.13318C29.6392 1.26981 29.3171 1.71874 29.3171 2.83129V12.2002H28.7511L21.0706 3.31926V9.85797C21.0706 10.9608 21.3438 11.4097 22.6223 11.5561V11.966H18.621V11.5561C19.8604 11.4195 20.1825 10.9705 20.1825 9.85797V2.34333C20.0377 2.03811 19.8191 1.77384 19.5465 1.57445C19.2738 1.37507 18.9557 1.24687 18.621 1.2015V0.791606H21.6854L28.4095 8.59902V2.83129H28.4486ZM34.4408 7.95491L36.1389 3.51444L37.8272 7.95491H34.4408ZM42.4922 11.9757V11.6146C41.6138 11.6146 41.4479 11.2926 41.0283 10.2386L37.0465 0.528106H36.5L32.3816 10.5509C32.2895 10.8482 32.108 11.1099 31.8617 11.3003C31.6154 11.4907 31.3164 11.6004 31.0055 11.6146V12.0245H34.6067V11.6146C33.8259 11.6146 33.4648 11.4292 33.4648 10.8827C33.615 10.1821 33.8273 9.4962 34.0992 8.83325H38.1786C38.473 9.4923 38.7019 10.1788 38.8617 10.8827C38.8617 11.4292 38.4518 11.6146 37.6711 11.6146V12.0245L42.4922 11.9757ZM53.4421 2.83129C53.4421 1.7285 53.1688 1.26981 51.8903 1.13318V0.723291H55.8721V1.13318C54.6327 1.26981 54.3106 1.71874 54.3106 2.83129V12.2002H53.7251L46.0445 3.31926V9.85797C46.0445 10.9608 46.3178 11.4097 47.5963 11.5561V11.966H43.595V11.5561C44.8344 11.4195 45.1467 10.9705 45.1467 9.85797V2.34333C45.0089 2.03504 44.7935 1.76776 44.5215 1.56762C44.2495 1.36749 43.9303 1.24133 43.595 1.2015V0.791606H46.6594L53.3835 8.59902L53.4421 2.83129ZM67.6711 9.37001C67.2025 10.2909 66.4782 11.0571 65.5849 11.5764C64.6916 12.0958 63.6674 12.3462 62.6353 12.2978C58.9756 12.2978 56.7797 9.91652 56.7797 6.30559C56.7796 5.52835 56.9343 4.75886 57.2346 4.04199C57.535 3.32513 57.975 2.67523 58.5291 2.1302C59.0833 1.58516 59.7403 1.1559 60.4621 0.867433C61.1838 0.578969 61.9557 0.437078 62.7329 0.450032C63.7902 0.576709 64.8328 0.805493 65.8461 1.13318C66.1584 1.13318 66.256 0.947755 66.578 0.450032H67.1636L67.3881 4.19759H66.9294C66.2462 2.46044 65.1044 1.18198 63.1233 1.18198C60.4687 1.18198 59.3171 4.10976 59.3171 6.208C59.3171 9.23337 60.5956 11.2926 63.4356 11.2926C64.2276 11.2489 64.9971 11.0127 65.6773 10.6046C66.3575 10.1965 66.928 9.62867 67.3393 8.95036L67.6711 9.37001ZM73.068 10.2483C73.068 11.439 73.39 11.5268 74.7661 11.5756V11.9855H69.1838V11.6146C70.511 11.5658 70.8721 11.4292 70.8721 10.2874V2.60683C70.8721 1.4162 70.5501 1.31861 69.1838 1.27957V0.87944H74.7661V1.29909C73.4388 1.29909 73.068 1.47476 73.068 2.62635V10.2483ZM79.3822 7.96467L81.0803 3.5242L82.7687 7.96467H79.3822ZM87.4336 11.9855V11.6146C86.5553 11.6146 86.3796 11.2926 85.9697 10.2386L81.9879 0.537865H81.4512L77.323 10.5606C77.2293 10.8562 77.047 11.1158 76.8009 11.3043C76.5548 11.4928 76.2567 11.6011 75.9469 11.6146V12.0245H79.5676V11.6146C78.7869 11.6146 78.4258 11.4292 78.4258 10.8827C78.576 10.1821 78.7882 9.4962 79.0602 8.83325H83.1298C83.4274 9.49201 83.6595 10.1785 83.8227 10.8827C83.8227 11.4292 83.4128 11.6146 82.632 11.6146V12.0245L87.4336 11.9855ZM88.4095 11.9855V11.6146C89.4635 11.5658 89.7856 11.4292 89.7856 10.2874V2.59707C89.7856 1.40644 89.4635 1.31861 88.4095 1.26981V0.87944H93.5819V1.28933C92.3425 1.28933 92.0302 1.47476 92.0302 2.61659V10.5216C92.0302 11.2145 92.2059 11.439 93.4453 11.439C95.4557 11.439 96.6464 11.0779 97.6028 9.09675H98.0419L97.2612 12.1221H88.3412V12.0245L88.4095 11.9855ZM2.87928 29.7864C4.1675 29.7864 4.4798 29.6107 4.4798 28.4591V19.8124H3.10374C1.82528 19.8124 1.27876 20.3687 0.907905 21.8619H0.449219L0.722478 18.9341H10.6086L10.8819 21.8619H10.4232C10.0523 20.3101 9.54486 19.8124 8.22736 19.8124H6.8513V28.4591C6.8513 29.6498 7.17336 29.7474 8.45182 29.7864V30.206H3.05494V29.7864H2.87928ZM15.8786 28.4591C15.8786 29.6498 16.2007 29.7474 17.567 29.7864V30.206H11.9847V29.7864C13.3119 29.7864 13.6828 29.6107 13.6828 28.4591V20.7786C13.6828 19.588 13.3607 19.4904 11.9847 19.4513V19.0317H17.567V19.4221C16.2397 19.4221 15.8786 19.6075 15.8786 20.7493V28.4591ZM29.3757 18.9438H33.2794V19.3537C32.2254 19.3537 31.9131 19.5392 31.9131 20.681V28.4201C31.9131 29.6107 32.2254 29.6986 33.2794 29.7474V30.1573H28.1656V29.7474C29.2683 29.7474 29.5806 29.5619 29.5806 28.4201V20.5151L25.8233 30.3524H25.2378L21.5292 20.5151V28.1078C21.5292 29.2008 21.8025 29.6595 23.081 29.7962V30.2158H19.0601V29.7962C20.2996 29.6595 20.6119 29.2106 20.6119 28.1078V20.398C20.6119 19.627 20.2996 19.344 19.0601 19.344V18.9341H23.1298L26.1161 26.7415L29.3757 18.9438ZM34.8214 30.1573V29.7474C35.8754 29.7474 36.1877 29.5619 36.1877 28.4201V20.7786C36.1877 19.588 35.8754 19.4904 34.8214 19.4513V19.0317H44.1903V21.5105H43.7316C43.3705 20.2711 42.9118 19.8612 40.716 19.8612H39.0179C38.4616 19.8612 38.3737 19.9491 38.3737 20.4468V24.0187H40.3256C42.1115 24.0187 42.4726 23.6966 42.6678 22.5548H43.0777V26.5366H42.6678C42.4434 25.2093 41.7505 24.8872 40.3256 24.8872H38.3737V28.791C38.3737 29.4839 38.5592 29.7083 40.5696 29.7083C42.58 29.7083 43.7706 29.3472 44.7368 27.3661H45.1467L44.3659 30.3622H34.7238V30.1573H34.8214ZM46.7277 26.6439H47.1376C47.5963 28.1078 49.0894 29.7083 50.7095 29.7083C50.9651 29.7326 51.223 29.7014 51.4655 29.6169C51.7081 29.5324 51.9295 29.3966 52.1148 29.2187C52.3 29.0408 52.4448 28.8251 52.5391 28.5863C52.6334 28.3474 52.6751 28.091 52.6613 27.8345C52.6613 25.2288 46.8058 24.7701 46.8058 21.5691C46.8512 20.7597 47.2116 20.0002 47.8098 19.453C48.408 18.9059 49.1965 18.6145 50.0068 18.6413C51.6951 18.6413 52.2905 19.2269 53.0224 19.2269C53.1777 19.2269 53.3267 19.1652 53.4365 19.0554C53.5463 18.9455 53.608 18.7966 53.608 18.6413H54.0179V22.3498H53.608C53.4701 21.5947 53.086 20.9066 52.5157 20.3928C51.9454 19.879 51.2211 19.5686 50.4557 19.5099C50.2334 19.4862 50.0086 19.5103 49.7963 19.5804C49.584 19.6506 49.3891 19.7652 49.2247 19.9167C49.0603 20.0682 48.93 20.2531 48.8428 20.4589C48.7555 20.6648 48.7132 20.8869 48.7186 21.1104C48.7186 23.4038 54.5741 23.4526 54.5741 27.4247C54.5653 27.863 54.4662 28.2947 54.2831 28.693C54.1 29.0914 53.8368 29.4477 53.5099 29.7398C53.183 30.0319 52.7994 30.2535 52.3831 30.3908C51.9668 30.5281 51.5266 30.5782 51.0901 30.5379C49.1382 30.5379 48.621 29.8547 47.8402 29.8547C47.567 29.8547 47.3816 30.0401 47.2547 30.4403H46.6691L46.7277 26.6439Z"></path>
</svg>
