<svg xmlns="http://www.w3.org/2000/svg" fill="none" viewBox="0 0 77 21" height="21" width="77">
<g clip-path="url(#clip0_1600_178069)">
<path fill="#46413C" d="M69.3919 20.4709C68.4125 20.3659 66.8544 20.0246 66.3356 19.8015L66.0822 19.6916L66.0476 18.4363C66.0283 17.7454 66.0064 16.8221 65.9987 16.3841L65.9844 15.5877L66.1366 15.5151C66.2559 15.467 66.3824 15.439 66.5109 15.4322L66.734 15.4217L66.9236 15.8889C67.664 17.7114 68.5329 18.6918 69.6667 18.993C70.0998 19.1068 70.911 19.1079 71.2314 18.993C72.1284 18.6765 72.6208 17.9971 72.6247 17.0694C72.6302 15.9702 72.0256 15.442 69.7431 14.5506C68.329 13.9982 67.836 13.7136 67.2485 13.1128C66.6148 12.4643 66.3108 11.7256 66.2537 10.6979C66.1844 9.45524 66.5735 8.4077 67.4353 7.51515C68.2971 6.6226 69.4282 6.13015 70.9616 5.99C72.3119 5.86689 74.3845 6.15488 75.4683 6.61325L75.6667 6.69734L75.7019 7.81633C75.7217 8.43188 75.7414 9.25683 75.7469 9.6498L75.7557 10.3643L75.4897 10.4632C75.0693 10.6193 75.0418 10.5995 74.8077 9.97956C74.1514 8.24172 73.3897 7.41897 72.202 7.1678C71.4782 7.01501 70.8736 7.17934 70.4339 7.64925C70.0915 8.01584 69.9574 8.3412 69.925 8.8875C69.8898 9.47997 69.9959 9.79984 70.3576 10.1956C70.8038 10.6836 71.5342 11.1051 72.9896 11.713C74.7719 12.4577 75.6227 13.0903 76.0849 14.0147C76.385 14.6149 76.4697 15.0942 76.44 16.0169C76.4174 16.7094 76.3955 16.8518 76.2377 17.3167C75.7239 18.8325 74.5647 19.8306 72.7752 20.2983C72.1707 20.4572 72.0816 20.4632 70.8753 20.478C70.1806 20.4879 69.5128 20.4835 69.3919 20.4709Z"></path>
<path fill="#46413C" d="M0.073097 20.1406C0.0274801 20.1208 0.00439681 19.985 0.00439681 19.7317C0.00439681 19.276 -0.0247321 19.2964 0.856279 19.1331C1.53174 19.0078 1.77356 18.8792 2.072 18.4885C2.65018 17.73 2.77549 16.2697 2.77659 10.2565C2.77659 4.60937 2.66667 3.42168 2.0709 2.54891C1.80544 2.16419 1.35642 1.95149 0.608959 1.86191L0.0318769 1.79266L0.0159384 1.34199L0 0.891863L0.180819 0.859436C0.280297 0.841849 3.77411 0.834155 7.94449 0.842948L15.529 0.858337L15.5647 1.07818C15.5845 1.19909 15.6164 2.43954 15.6362 3.83443L15.6719 6.37029L15.2789 6.49065C14.6903 6.66982 14.6936 6.67202 14.4287 5.97128C13.7785 4.25048 13.0327 3.259 12.0104 2.75831C11.3064 2.41316 10.981 2.37359 8.99368 2.37359H7.26683L7.23715 2.66213C7.18219 3.20349 7.09316 6.68411 7.09371 8.32303V9.95314L7.60209 9.9504C7.88184 9.9504 8.43309 9.92786 8.82715 9.90478C9.42017 9.86905 9.59659 9.83773 9.84391 9.72286C10.4534 9.44092 10.8678 8.81987 11.1217 7.80915L11.2525 7.28758L11.7016 7.27164L12.15 7.2557V13.8608L11.701 13.8449L11.2525 13.8289L11.125 13.3068C10.886 12.3258 10.4254 11.6234 9.856 11.3717C9.5933 11.2557 8.94257 11.1892 7.68453 11.1518L7.09371 11.1337V12.3714C7.09371 13.7234 7.1679 15.5519 7.26298 16.5445C7.39599 17.9284 7.74938 18.6929 8.38472 18.9694C8.50563 19.0243 8.88926 19.1079 9.23715 19.1601C9.58505 19.2123 9.91261 19.2771 9.96538 19.3046C10.0995 19.3739 10.1072 20.0905 9.97472 20.1411C9.87084 20.1812 0.171476 20.1785 0.0725474 20.1384L0.073097 20.1406Z"></path>
<path fill="#46413C" d="M27.1669 20.1302C27.1169 20.0983 27.1004 19.9713 27.1119 19.7048L27.1284 19.325L27.3208 19.2843C27.4263 19.2618 27.6539 19.2167 27.8259 19.1848C28.3579 19.0854 28.6635 18.7963 28.836 18.2307C28.9762 17.7696 29.0378 16.295 29.041 13.3343C29.0449 9.71302 28.9696 8.85784 28.6014 8.37309C28.403 8.11038 28.2595 8.03563 27.777 7.9433C27.5395 7.89768 27.2895 7.84877 27.2213 7.83338C27.1114 7.8103 27.0977 7.77457 27.0977 7.50362C27.0977 7.23266 27.1141 7.19419 27.2213 7.15022C27.3862 7.08262 32.8306 5.99606 33.0042 5.99606H33.1422L33.1158 6.80672C33.101 7.25245 33.0773 7.90208 33.0636 8.24943L33.0383 8.88147L33.2356 8.52588C33.8671 7.3871 34.575 6.68031 35.5165 6.24888C36.0336 6.012 36.3782 5.9411 37.0169 5.9411C37.7742 5.9411 38.5316 6.18842 38.5316 6.43574C38.5316 6.60062 37.1971 10.128 37.1235 10.156C37.0878 10.1697 36.8273 10.0703 36.5448 9.93615C35.955 9.65366 35.4027 9.51516 34.8657 9.51681C34.1974 9.51681 33.4511 9.76413 33.1565 10.0801C33.0301 10.2154 33.0295 10.2236 32.9982 12.2428C32.9674 14.2428 33.0339 16.682 33.1466 17.663C33.2422 18.4984 33.4642 18.91 33.9232 19.1019C34.0765 19.1645 35.0449 19.2964 35.3609 19.2964C35.3851 19.2964 35.3972 19.4882 35.3884 19.7224L35.3725 20.1483L31.3054 20.1615C29.0685 20.1686 27.2059 20.1538 27.1669 20.1291V20.1302Z"></path>
<path fill="#46413C" d="M27.1033 12.0712C26.8159 9.6321 25.7843 7.847 24.075 6.84232C22.1783 5.72608 19.2962 5.66123 17.2484 6.68954C15.7716 7.4315 14.5625 8.86156 14.0245 10.5027C13.471 12.1976 13.471 14.4219 14.0245 16.152C14.3795 17.26 14.861 18.069 15.6035 18.8044C16.4933 19.6838 17.659 20.2499 18.9918 20.4444C19.4688 20.5137 20.9742 20.5153 21.465 20.4444C21.7691 20.398 22.0703 20.3336 22.3669 20.2515C24.7824 19.5519 26.4339 17.6953 26.9978 15.038C27.1341 14.3889 27.1913 12.8159 27.1033 12.0712ZM22.1113 18.3224C21.8557 18.8121 21.3754 19.2622 20.9863 19.3782C19.4842 19.8239 18.4097 18.3933 17.992 15.3941C17.8574 14.4252 17.8579 11.7854 17.992 10.6774C18.2861 8.26689 19.0302 7.04238 20.2031 7.04073C20.7312 7.04073 21.0275 7.16934 21.438 7.58539C22.4218 8.57467 22.8884 10.4686 22.8807 13.443C22.8763 15.8173 22.6417 17.3117 22.1113 18.3224Z"></path>
<path fill="#46413C" d="M51.7327 10.916C51.1831 8.40651 49.6184 6.67361 47.5007 6.23558C47.1765 6.16853 46.8841 6.15479 46.2531 6.17677C45.3051 6.20975 44.6522 6.3521 43.9448 6.67911C43.7096 6.78903 43.5051 6.87642 43.4892 6.87642C43.4733 6.87642 43.4755 5.44196 43.4941 3.68873C43.5205 1.21827 43.5134 0.501038 43.4623 0.501038C43.2831 0.499939 37.67 1.56782 37.6085 1.61673C37.5629 1.653 37.5431 1.77172 37.5535 1.95144C37.5716 2.26361 37.5348 2.23888 38.2191 2.39112C38.4252 2.43728 38.6659 2.52687 38.7549 2.59007C38.983 2.75495 39.1732 3.1045 39.3045 3.60959C39.4084 4.0075 39.4222 4.29219 39.4694 6.98469C39.5183 9.7327 39.5084 12.5593 39.4331 17.736L39.4018 19.8866L39.8041 19.9778C40.3862 20.1103 42.0525 20.3878 42.5977 20.4428C43.3974 20.5241 45.2617 20.5126 45.8552 20.4235C48.4329 20.035 50.3757 18.5401 51.2814 16.2466C51.5491 15.5241 51.7335 14.7734 51.831 14.0091C51.9283 13.1957 51.8756 11.5706 51.7327 10.916ZM47.5557 14.5983C47.3089 16.5181 46.6813 18.0669 45.847 18.8176C45.5139 19.1171 45.2034 19.276 44.8027 19.3518C44.5131 19.4068 44.4263 19.4068 43.9025 19.3667C43.6827 19.3496 43.631 19.3243 43.5859 19.2062C43.5156 19.0215 43.432 12.5796 43.4661 10.0064L43.493 7.9976L43.8574 7.89043C44.138 7.81403 44.428 7.77794 44.7187 7.78326C45.1836 7.78326 45.2441 7.797 45.6359 7.99046C46.5807 8.45762 47.2298 9.61783 47.5299 11.3826C47.6398 12.035 47.6535 13.8168 47.5529 14.5983H47.5557Z"></path>
<path fill="#46413C" d="M65.189 11.5207C64.9351 9.05077 63.9354 7.3503 62.236 6.49897C60.7262 5.74217 58.3943 5.79713 56.6888 6.62813C55.073 7.41626 53.9606 8.73035 53.3401 10.5853C53.0164 11.5515 52.9147 12.3291 52.9471 13.5817C52.968 14.3737 53.0021 14.7826 53.0862 15.1486C53.7232 17.9922 55.6732 19.9257 58.3997 20.4176C58.9999 20.5275 60.3629 20.5275 60.9697 20.422C61.8359 20.2703 62.835 19.885 63.4649 19.4597C64.2343 18.9403 65.0225 18.1593 65.0225 17.9169C65.0225 17.7691 64.7581 17.4289 64.6432 17.4289C64.5932 17.4289 64.3794 17.5388 64.1689 17.6768C63.4165 18.1626 62.6976 18.3627 61.6957 18.3627C60.3162 18.3627 59.4424 18.0186 58.563 17.1315C58.1739 16.7386 58.0134 16.527 57.8122 16.1373C57.3696 15.2814 57.1303 14.2969 57.0944 13.1838L57.0791 12.7029L61.1461 12.6891L65.2132 12.6748L65.2313 12.4C65.2351 12.1063 65.2209 11.8127 65.189 11.5207ZM60.1266 11.4591C59.6006 11.4773 58.7064 11.4998 58.1398 11.5091L57.1093 11.5256V11.303C57.1222 11.0636 57.1481 10.8251 57.1868 10.5886C57.5303 8.37531 58.3558 7.04692 59.389 7.04582C60.3398 7.04582 60.9279 8.35332 61.0472 10.7485L61.0818 11.4278L60.1266 11.4591Z"></path>
</g>
<defs>
<clipPath id="clip0_1600_178069">
<rect transform="translate(0 0.5)" fill="white" height="20" width="76.4479"></rect>
</clipPath>
</defs>
</svg>
