<svg xmlns="http://www.w3.org/2000/svg" fill="none" viewBox="0 0 207 40" height="40" width="207">
<g clip-path="url(#clip0_1887_63819)">
<path fill="#46413C" d="M200.628 17.9644V15.4708H197.676V11.8575H195.183V15.4708H192.791V17.9644H195.132V25.1909C195.132 27.2774 196.862 29.0077 198.949 29.0077H200.628V26.514H198.949C198.236 26.514 197.625 25.9542 197.625 25.1909V17.9644H200.628Z"></path>
<path fill="#46413C" d="M186.022 15.2163C188.72 15.2163 190.857 17.4046 190.857 20.1018V24.1731C190.857 26.8194 188.669 29.0585 186.022 29.0585H185.056C182.409 29.0585 180.221 26.8703 180.221 24.1731V20.1018C180.221 17.4046 182.409 15.2163 185.056 15.2163H186.022ZM182.765 20.1018V24.1731C182.765 25.4962 183.834 26.514 185.106 26.514H186.073C187.397 26.514 188.414 25.4453 188.414 24.1731V20.1018C188.414 18.7786 187.397 17.7608 186.073 17.7608H185.106C183.834 17.7099 182.765 18.7786 182.765 20.1018Z"></path>
<path fill="#46413C" d="M177.473 20.1018V24.173C177.473 26.8703 175.284 29.0585 172.638 29.0585H172.333C171.213 29.0585 170.145 28.6514 169.33 27.9898V33.3842H166.837V15.4708H169.33V16.285C170.145 15.6234 171.162 15.2163 172.333 15.2163H172.638C175.284 15.2163 177.473 17.4046 177.473 20.1018ZM174.979 20.1018C174.979 18.8295 173.961 17.7608 172.638 17.7608H171.671C170.399 17.7608 169.33 18.8295 169.33 20.1018V24.173C169.33 25.4962 170.399 26.514 171.671 26.514H172.638C173.961 26.514 174.979 25.4453 174.979 24.173V20.1018Z"></path>
<path fill="#46413C" d="M155.132 24.631C155.386 25.6997 156.302 26.514 157.473 26.514H159.203C160.475 26.514 161.544 25.4453 161.544 24.173C161.544 22.6972 160.628 21.832 159.305 21.3231L157.015 20.458C154.877 19.6437 153.096 18.2188 153.096 15.5216C153.096 12.8244 155.285 10.6361 157.931 10.6361H159.152C161.391 10.6361 163.325 12.1628 163.834 14.3002L161.391 15.0127C161.188 13.944 160.221 13.1806 159.101 13.1806H157.88C156.557 13.1806 155.539 14.2493 155.539 15.5216C155.539 16.5394 155.895 17.3028 157.931 18.117L160.221 19.0331C162.562 20 164.038 21.7303 164.038 24.173C164.038 26.8702 161.849 29.0076 159.203 29.0076H157.473C155.183 29.0076 153.3 27.43 152.74 25.3435L155.132 24.631Z"></path>
<path fill="#46413C" d="M150.348 17.9644V15.4708H147.396V11.8575H144.903V15.4708H142.562V17.9644H144.903V25.1909C144.903 27.2774 146.633 29.0077 148.72 29.0077H150.399V26.514H148.72C148.007 26.514 147.396 25.9542 147.396 25.1909V17.9644H150.348Z"></path>
<path fill="#46413C" d="M140.323 20.1018V28.8041H137.829V20.1018C137.829 18.7787 136.811 17.7609 135.488 17.7609H134.521C133.249 17.7609 132.18 18.8296 132.18 20.1018V28.8041H129.687V10.8906H132.18V16.285C132.994 15.6234 134.012 15.2163 135.183 15.2163H135.488C138.185 15.2163 140.323 17.4046 140.323 20.1018Z"></path>
<path fill="#46413C" d="M126.43 15.4707V28.7023C126.43 31.3995 124.292 33.5369 121.595 33.5369H120.577C118.287 33.5369 116.404 31.9593 115.895 29.8728L118.287 29.1603C118.542 30.1781 119.458 30.9924 120.577 30.9924H121.595C122.867 30.9924 123.936 29.9237 123.936 28.6514V27.0738C123.122 27.7354 122.104 28.1425 120.933 28.1425H120.628C117.982 28.1425 115.793 25.9542 115.793 23.257V20C115.793 17.3028 117.982 15.1145 120.628 15.1145H120.933C122.053 15.1145 123.122 15.5216 123.936 16.1832V15.369L126.43 15.4707ZM123.936 23.3588V20.1018C123.936 18.7786 122.918 17.7608 121.595 17.7608H120.628C119.356 17.7608 118.287 18.8295 118.287 20.1018V23.3588C118.287 24.631 119.356 25.6997 120.628 25.6997H121.595C122.867 25.6997 123.936 24.631 123.936 23.3588Z"></path>
<path fill="#46413C" d="M104.801 15.4707V24.173C104.801 25.4961 105.819 26.514 107.142 26.514H108.109C109.432 26.514 110.45 25.4453 110.45 24.173V15.4707H112.944V24.173C112.944 26.8702 110.755 29.0076 108.109 29.0076H107.142C104.445 29.0076 102.307 26.8193 102.307 24.1221V15.4707H104.801Z"></path>
<path fill="#46413C" d="M94.5212 15.2163C97.2184 15.2163 99.3558 17.4046 99.3558 20.1018V24.1731C99.3558 26.8194 97.1676 29.0585 94.5212 29.0585H93.5543C90.908 29.0585 88.7197 26.8703 88.7197 24.1731V20.1018C88.7197 17.4046 90.908 15.2163 93.5543 15.2163H94.5212ZM91.2134 20.1018V24.1731C91.2134 25.4962 92.2821 26.514 93.5543 26.514H94.5212C95.8444 26.514 96.8622 25.4453 96.8622 24.1731V20.1018C96.8622 18.7786 95.8444 17.7608 94.5212 17.7608H93.5543C92.2821 17.7099 91.2134 18.7786 91.2134 20.1018Z"></path>
<path fill="#46413C" d="M85.8188 20.1018V28.8041H83.3251V20.1018C83.3251 18.7787 82.3073 17.7609 80.9842 17.7609H80.0172C78.745 17.7609 77.6763 18.8296 77.6763 20.1018V28.8041H75.1826V10.8906H77.6763V16.285C78.4905 15.6234 79.5083 15.2163 80.6788 15.2163H80.9842C83.6305 15.2163 85.8188 17.4046 85.8188 20.1018Z"></path>
<path fill="#46413C" d="M72.4855 10.8906V13.3843H67.4473V28.7532H64.9537V13.4352H59.9155V10.9415L72.4855 10.8906Z"></path>
<path fill="#46413C" d="M35.997 39.9999C38.7514 39.9999 40.9843 37.7671 40.9843 35.0127C40.9843 32.2583 38.7514 30.0254 35.997 30.0254C33.2426 30.0254 31.0098 32.2583 31.0098 35.0127C31.0098 37.7671 33.2426 39.9999 35.997 39.9999Z"></path>
<path fill="#46413C" d="M40.628 9.92371H0.93335V12.4173H14.572V39.6947H17.0657V12.4173H19.5593V39.6947H22.002V12.4173H24.4957V39.6947H26.9893V12.4173H40.628V9.92371Z"></path>
<path fill="#46413C" d="M40.628 4.9873H0.93335V7.48094H40.628V4.9873Z"></path>
<path fill="#46413C" d="M40.628 0H0.93335V2.49364H40.628V0Z"></path>
<path fill="#46413C" d="M204.699 29.0585C205.819 29.0585 206.735 28.1425 206.735 27.0229C206.735 25.9033 205.819 24.9873 204.699 24.9873C203.529 24.9873 202.664 25.9033 202.664 27.0229C202.664 28.1425 203.529 29.0585 204.699 29.0585ZM204.699 28.7023C203.783 28.7023 203.071 27.939 203.071 27.0229C203.071 26.1069 203.783 25.3435 204.699 25.3435C205.615 25.3435 206.328 26.1069 206.328 27.0229C206.328 27.939 205.615 28.7023 204.699 28.7023ZM204.343 28.1934V27.2774H204.597L205.157 28.1934H205.615L205.055 27.2265C205.361 27.1247 205.615 26.9211 205.615 26.5649C205.615 26.3614 205.513 26.1578 205.361 26.0051C205.208 25.9033 205.005 25.8524 204.75 25.8524H203.936V28.1425H204.343V28.1934ZM204.699 26.9211H204.343V26.2087H204.699C205.005 26.2087 205.208 26.3105 205.208 26.5649C205.208 26.8194 205.005 26.9211 204.699 26.9211Z"></path>
</g>
<defs>
<clipPath id="clip0_1887_63819">
<rect transform="translate(0.93335)" fill="white" height="40" width="205.802"></rect>
</clipPath>
</defs>
</svg>
