<svg xmlns="http://www.w3.org/2000/svg" fill="none" viewBox="0 0 164 40" height="40" width="164">
<path fill="#46413C" d="M36.1015 0H5.57011C2.74766 0 0.495117 2.2387 0.495117 4.98988V35.0101C0.495117 37.7613 2.77479 40 5.57011 40H36.0744C38.8968 40 41.1494 37.7613 41.1494 35.0101V5.01686C41.1765 2.2387 38.8968 0 36.1015 0ZM26.25 7.33648C26.25 6.60823 26.8471 6.01484 27.607 6.01484C28.3669 6.01484 28.964 6.60823 28.964 7.33648V25.1652C28.964 25.8935 28.3669 26.4869 27.607 26.4869C26.8471 26.4869 26.25 25.8935 26.25 25.1652V7.33648ZM19.4924 6.66217C19.4924 5.93392 20.0895 5.34053 20.8494 5.34053C21.6093 5.34053 22.2063 5.93392 22.2063 6.66217V26.0014C22.2063 26.7296 21.6093 27.323 20.8494 27.323C20.0895 27.323 19.4924 26.7296 19.4924 26.0014V6.66217ZM12.7077 7.33648C12.7077 6.60823 13.3047 6.01484 14.0646 6.01484C14.8245 6.01484 15.4216 6.60823 15.4216 7.33648V25.1652C15.4216 25.8935 14.8245 26.4869 14.0646 26.4869C13.3047 26.4869 12.7077 25.8935 12.7077 25.1652V7.33648ZM5.92292 10.0067C5.92292 9.27849 6.51998 8.6851 7.27987 8.6851C8.03977 8.6851 8.63682 9.27849 8.63682 10.0067V22.0094C8.63682 22.7377 8.03977 23.3311 7.27987 23.3311C6.51998 23.3311 5.92292 22.7377 5.92292 22.0094V10.0067ZM35.2873 30.3439C35.0702 30.5327 30.0495 34.6595 20.8494 34.6595C11.6493 34.6595 6.62854 30.5057 6.41142 30.3439C5.84151 29.8584 5.78723 29.0222 6.27573 28.4558C6.76423 27.8894 7.60554 27.8355 8.17546 28.321C8.25688 28.3749 12.7348 32.0162 20.8494 32.0162C29.0725 32.0162 33.4962 28.3749 33.5233 28.3479C34.0932 27.8624 34.9345 27.9434 35.423 28.4828C35.9115 29.0222 35.8573 29.8854 35.2873 30.3439ZM35.7487 22.0094C35.7487 22.7377 35.1516 23.3311 34.3918 23.3311C33.6319 23.3311 33.0348 22.7377 33.0348 22.0094V10.0067C33.0348 9.27849 33.6319 8.6851 34.3918 8.6851C35.1516 8.6851 35.7487 9.27849 35.7487 10.0067V22.0094Z"></path>
<path fill="#46413C" d="M56.9443 25.7855C56.9443 26.4598 56.4286 26.9993 55.6959 26.9993C54.9903 26.9993 54.4746 26.4598 54.4746 25.7855V14.1874C54.4746 13.5131 54.9902 12.9736 55.723 12.9736C56.4286 12.9736 56.9443 13.5131 56.9443 14.1874V25.7855Z"></path>
<path fill="#46413C" d="M72.9021 14.1875V24.7876C72.9021 26.2172 72.1422 27.0263 70.8938 27.0263H70.7852C69.6183 27.0263 69.0755 26.352 68.5598 25.381L66.0631 20.58L63.8648 15.617L63.9191 20.4181L63.9462 25.7856C63.9462 26.4599 63.4306 26.9994 62.6978 26.9994C61.9922 26.9994 61.4766 26.4599 61.4766 25.7856V15.1855C61.4766 13.8638 62.2365 12.9468 63.5934 12.9468H63.702C64.9504 12.9468 65.466 13.6211 65.9545 14.5921L68.397 19.3662L70.4867 24.0054L70.4324 19.555L70.4053 14.1875C70.4053 13.5132 70.9209 12.9738 71.6537 12.9738C72.3864 12.9738 72.9021 13.5402 72.9021 14.1875Z"></path>
<path fill="#46413C" d="M82.7807 25.7855C82.7807 26.4598 82.265 26.9993 81.5323 26.9993C80.8267 26.9993 80.311 26.4598 80.311 25.7855V15.2933H77.2443C76.6201 15.2933 76.1045 14.8347 76.1045 14.1335C76.1045 13.4591 76.6201 13.0006 77.2443 13.0006H85.8474C86.4716 13.0006 86.9872 13.4591 86.9872 14.1604C86.9872 14.8347 86.4716 15.2933 85.8474 15.2933H82.7807V25.7855Z"></path>
<path fill="#46413C" d="M90.2167 25.381V14.4841C90.2167 13.4592 90.7866 12.8928 91.845 12.9197H98.9554C99.5796 12.9197 100.095 13.4052 100.095 14.0796C100.095 14.7539 99.5796 15.2124 98.9554 15.2124H92.6592V18.5839H98.1955C98.8197 18.5839 99.3082 19.0425 99.3082 19.6898C99.3082 20.3371 98.8197 20.7957 98.1955 20.7957H92.6592V24.6797H98.9283C99.5525 24.6797 100.068 25.1652 100.068 25.8395C100.068 26.5138 99.5525 26.9723 98.9283 26.9723H91.7636C90.7595 26.9993 90.1624 26.4329 90.2167 25.381Z"></path>
<path fill="#46413C" d="M114.126 25.408C114.452 25.9744 114.235 26.7026 113.556 27.0533C112.878 27.3769 112.145 27.1342 111.819 26.5678L109.078 21.5239H106.473L106.5 25.8125C106.5 26.4868 105.985 27.0263 105.252 27.0263C104.546 27.0263 104.031 26.4868 104.031 25.8125V14.5111C104.031 13.4862 104.6 12.9197 105.659 12.9467H110.3C113.529 12.9467 114.859 15.0236 114.859 17.1544C114.859 19.1773 113.665 20.6608 111.629 21.0654L114.126 25.408ZM106.446 19.3122H110.354C111.684 19.3122 112.362 18.4761 112.362 17.2623C112.362 16.0755 111.629 15.2394 110.327 15.2394H106.446V19.3122Z"></path>
<path fill="#46413C" d="M119.961 25.9474C118.468 24.6258 117.817 22.5759 117.817 19.9865C117.817 17.3702 118.468 15.3473 119.934 14.0526C120.83 13.2704 122.078 12.731 123.842 12.731C125.416 12.731 126.61 13.0816 127.506 13.8368C128.293 14.4572 128.863 15.3473 129.216 16.588C129.405 17.2353 128.944 17.8827 128.184 18.0175C127.479 18.1254 126.909 17.6939 126.692 17.0465C126.447 16.4262 126.149 15.9676 125.769 15.644C125.253 15.1854 124.629 14.9966 123.788 14.9966C122.892 14.9966 122.132 15.2394 121.562 15.8328C120.721 16.6689 120.368 18.1254 120.368 19.9865C120.368 21.8206 120.694 23.3041 121.562 24.1403C122.132 24.7067 122.892 24.9764 123.761 24.9764C124.656 24.9764 125.362 24.7337 125.932 24.2212C126.23 23.9515 126.474 23.6008 126.664 23.1693C126.909 22.5489 127.451 22.1173 128.157 22.2792C128.836 22.441 129.27 23.1153 129.053 23.7626C128.7 24.8415 128.076 25.7047 127.262 26.298C126.366 26.9454 125.226 27.2691 123.815 27.2691C121.969 27.2421 120.83 26.7026 119.961 25.9474Z"></path>
<path fill="#46413C" d="M131.984 19.9865C131.984 15.59 133.802 12.731 138.09 12.731C142.324 12.731 144.169 15.5091 144.169 19.9865C144.169 24.5179 142.324 27.2421 138.09 27.2421C133.775 27.2421 131.984 24.5179 131.984 19.9865ZM141.645 19.9865C141.645 16.6419 140.424 15.0236 138.063 15.0236C135.756 15.0236 134.535 16.6419 134.535 19.9865C134.535 23.3311 135.729 24.9494 138.063 24.9494C140.397 24.9494 141.645 23.3311 141.645 19.9865Z"></path>
<path fill="#46413C" d="M163.329 25.7856C163.329 26.4599 162.814 26.9994 162.081 26.9994C161.375 26.9994 160.86 26.4599 160.86 25.7856V20.526L160.914 15.4013L159.204 20.6069L157.467 25.7317C157.169 26.6218 156.572 26.9994 155.785 26.9994C154.97 26.9994 154.373 26.6218 154.075 25.7317L152.284 20.6339L150.655 15.5092L150.71 20.553V25.8126C150.71 26.4869 150.194 27.0264 149.461 27.0264C148.756 27.0264 148.24 26.4869 148.24 25.8126V15.3204C148.24 13.8639 149.027 13.0277 150.411 13.0277C151.714 13.0277 152.447 13.702 152.854 14.9697L154.672 20.3372L155.785 23.9785L156.897 20.3372L158.716 14.9697C159.123 13.702 159.828 13.0277 161.158 13.0277C162.542 13.0277 163.302 13.8639 163.302 15.3204L163.329 25.7856Z"></path>
</svg>
