<svg width="84" height="33" viewBox="0 0 84 33" fill="none" xmlns="http://www.w3.org/2000/svg">
<path d="M74.5896 4.8213C69.3998 4.8213 65.1767 9.20018 65.1767 14.5833C65.1767 19.9664 69.3998 24.3453 74.5896 24.3453C79.7781 24.3453 84 19.9664 84 14.5833C84 9.20018 79.7781 4.8213 74.5896 4.8213ZM74.5896 19.7188C71.8602 19.7188 69.6372 17.4125 69.6372 14.5833C69.6372 11.7529 71.8602 9.44778 74.5896 9.44778C77.3165 9.44778 79.5407 11.7529 79.5407 14.5833C79.5407 17.4137 77.3177 19.7188 74.5883 19.7188H74.5896ZM46.872 12.6063L45.2261 11.7541C44.5115 11.3871 44.0635 11.1031 43.8833 10.8932C43.7116 10.7072 43.6138 10.4613 43.6094 10.2044C43.6094 9.87512 43.753 9.59735 44.0355 9.38117C44.3155 9.15494 44.7136 9.05187 45.2188 9.05187C46.1428 9.05187 47.1666 9.62751 48.2939 10.7876L51.072 7.90562C50.3894 6.94594 49.4967 6.16644 48.4668 5.63071C47.4504 5.10274 46.3274 4.83055 45.1896 4.83638C43.4937 4.83638 42.0937 5.35295 41.003 6.39362C39.9134 7.4343 39.3656 8.68487 39.3656 10.1516C39.3656 12.4265 40.8082 14.3219 43.7031 15.8263L45.2188 16.6119C46.525 17.2943 47.1751 17.9894 47.1751 18.7083C47.1751 19.0979 46.9937 19.4348 46.6334 19.7339C46.273 20.0343 45.7958 20.1763 45.2042 20.1763C44.6563 20.1763 44.0282 19.9815 43.3209 19.5856C42.6161 19.196 41.9891 18.6724 41.4729 18.0422L38.7094 21.1642C40.2677 23.2757 42.3457 24.339 44.9583 24.339C46.9219 24.339 48.4887 23.7847 49.6501 22.6837C50.8188 21.584 51.4031 20.2065 51.4031 18.5587C51.4031 17.3232 51.0793 16.2386 50.4365 15.3173C49.7876 14.396 48.597 13.4986 46.872 12.6075V12.6063ZM18.9256 22.2187V5.20967H14.4577V6.34838C12.9523 5.34939 11.2 4.81923 9.41044 4.8213C4.22191 4.8213 0 9.20018 0 14.5833C0 19.9664 4.22191 24.3453 9.41165 24.3453C11.1798 24.348 12.9122 23.8315 14.4066 22.8559C14.4066 23.0055 14.3993 23.14 14.3993 23.2305C14.3993 26.0596 12.1763 28.366 9.44817 28.366C8.52054 28.3638 7.61238 28.091 6.82835 27.5792L4.61878 31.5923C6.07577 32.5099 7.74882 32.9968 9.45548 33C14.6452 33 18.9256 28.6199 18.9256 23.2367C18.9256 23.0281 18.939 22.4135 18.9256 22.2187V22.2187ZM9.41165 19.7176C6.6847 19.7176 4.46052 17.4125 4.46052 14.5833C4.46052 11.7529 6.68348 9.44778 9.41165 9.44778C12.1398 9.44778 14.3628 11.7529 14.3628 14.5833C14.3628 17.4125 12.1398 19.7188 9.41165 19.7188V19.7176ZM36.7226 5.20338H32.2329V14.484C32.2402 15.8024 32.2402 18.0786 31.3028 19.0514C30.8548 19.5152 30.3642 19.935 29.3318 19.935C28.2922 19.935 27.8016 19.5152 27.3548 19.0514C26.4162 18.0774 26.4235 15.7949 26.4296 14.484V5.20338H21.941V14.4564C21.9264 16.3643 21.9045 19.9061 24.1567 22.2564C25.4776 23.6339 27.0517 24.3378 29.3245 24.3378C31.5986 24.3378 33.1715 23.6415 34.4923 22.2564C36.7445 19.9061 36.7226 16.3567 36.708 14.4564L36.7226 5.20213V5.20338ZM62.1649 18.888C61.8045 19.1721 60.9304 19.8018 59.9419 19.6597C59.1336 19.5466 58.4774 18.9333 58.3763 16.8821V9.18636H63.6525V5.1883H58.3763V0H53.9012V1.01805H53.8939V16.2763C53.8939 18.702 54.4856 24.3378 59.9346 24.3378C62.692 24.2938 64.3659 22.7441 65.0671 22.1383L65.1609 22.0628L62.4753 18.6341C62.468 18.6404 62.2805 18.7975 62.1649 18.888H62.1649Z" fill="#463F3C"></path>
</svg>
