<svg width="99" height="22" viewBox="0 0 99 22" fill="none" xmlns="http://www.w3.org/2000/svg">
<path d="M9.35952 0.131213V0.809145C8.5466 0.89662 7.99734 1.02783 7.66777 1.18091C7.33821 1.334 7.16245 1.6839 7.16245 2.20875C7.16245 2.4493 7.20639 2.68986 7.2723 2.90855C7.33821 3.12724 7.44807 3.45527 7.62383 3.89264L12.5233 15.6143L16.6758 5.24851C16.8735 4.74553 17.0493 4.19881 17.225 3.65209C17.4008 3.0835 17.4887 2.66799 17.4887 2.3837C17.4887 1.79324 17.2031 1.35587 16.6538 1.09344C16.3023 0.940358 15.8409 0.852882 15.2477 0.809145V0.131213H21.729V0.809145C20.982 0.874751 20.4328 1.11531 20.1032 1.57455C19.7736 2.01193 19.2903 3.01789 18.6531 4.61431L11.974 21.2346C11.8422 21.5189 11.7543 21.7157 11.6664 21.825C11.5786 21.9344 11.4907 22 11.3589 22C11.2051 22 11.0732 21.9125 10.9634 21.7376C10.8535 21.5626 10.7437 21.3439 10.6118 21.0815L3.51531 4.15507C2.94407 2.77734 2.32889 1.85885 1.69174 1.35586C1.29627 1.07157 0.747004 0.89662 0 0.809145V0.131213H9.35952V0.131213ZM30.2756 0.0656066V14.827C30.2756 15.8767 30.4294 16.7078 30.715 17.3419C31.2863 18.501 32.3628 19.0915 33.9008 19.0915C34.9554 19.0915 35.988 18.7416 37.0206 18.0636C37.5919 17.6918 38.1851 17.1451 38.7783 16.4672V3.82704C38.7783 2.62425 38.5366 1.85885 38.0752 1.48708C37.6138 1.11531 36.6911 0.89662 35.3069 0.809145V0.0437377H42.7111V16.4672C42.7111 17.4732 42.8868 18.173 43.2603 18.5666C43.6338 18.9602 44.4028 19.1133 45.5672 19.0696V19.7475C44.7324 19.9662 44.1172 20.1412 43.7217 20.2505C43.3262 20.3598 42.6671 20.5785 41.7443 20.8628C41.3489 20.994 40.492 21.3221 39.1518 21.8469C39.0639 21.8469 39.0419 21.8032 39.02 21.7376C38.998 21.672 38.998 21.5845 38.998 21.4751V17.6918C37.9434 18.9384 36.9767 19.8569 36.0979 20.4692C34.7796 21.3877 33.3735 21.8469 31.9015 21.8469C30.5612 21.8469 29.2869 21.3658 28.0786 20.4254C26.8702 19.4851 26.255 17.9105 26.255 15.7018V3.73956C26.255 2.51491 26.0133 1.6839 25.486 1.26839C25.1565 1.00596 24.4534 0.831014 23.3768 0.72167V0.0437377H30.2756V0.0656066ZM50.7743 3.10537C52.6858 1.02783 55.1465 0 58.1565 0C61.1445 0 63.6272 0.984096 65.6045 2.95229C67.5599 4.92048 68.5486 7.52286 68.5486 10.8032C68.5486 13.7992 67.6039 16.4235 65.6924 18.6322C63.781 20.841 61.3202 21.9563 58.2883 21.9563C55.3881 21.9563 52.9274 20.8847 50.9061 18.7634C48.8848 16.6421 47.8961 13.9523 47.8961 10.7376C47.8961 7.71968 48.8409 5.1829 50.7743 3.10537V3.10537ZM54.3775 2.47117C52.8615 3.84891 52.0925 6.2326 52.0925 9.6004C52.0925 12.2903 52.7077 14.8052 53.9381 17.1233C55.1684 19.4632 56.8602 20.6223 59.0353 20.6223C60.749 20.6223 62.0453 19.835 62.968 18.2823C63.8908 16.7296 64.3522 14.674 64.3522 12.159C64.3522 9.53479 63.759 7.08549 62.5945 4.7674C61.4301 2.4493 59.7164 1.29026 57.4973 1.29026C56.2889 1.29026 55.2563 1.6839 54.3775 2.47117V2.47117ZM70.8336 21.0815C72.2616 20.9722 73.2064 20.7097 73.6678 20.3161C74.1292 19.9443 74.3708 19.1352 74.3708 17.8887V7.41352C74.3708 5.90457 74.217 4.81113 73.9314 4.15507C73.6458 3.49901 73.1185 3.17097 72.3495 3.17097C72.1957 3.17097 71.976 3.19284 71.7343 3.23658C71.4707 3.28032 71.2071 3.32406 70.9214 3.38966V2.64612C71.8003 2.33996 72.723 2.0338 73.6458 1.72763C74.5905 1.3996 75.2277 1.18091 75.6012 1.02783C76.3702 0.743539 77.1831 0.415507 78.018 0.0437377C78.1278 0.0437377 78.1937 0.0874754 78.2157 0.174951C78.2377 0.262426 78.2596 0.437375 78.2596 0.699801V4.52684C79.2264 3.14911 80.1711 2.05567 81.0719 1.29026C81.9727 0.524851 82.9174 0.131213 83.8842 0.131213C84.6531 0.131213 85.2903 0.371769 85.7736 0.852883C86.257 1.334 86.4987 1.92445 86.4987 2.64612C86.4987 3.28032 86.3229 3.82704 85.9494 4.26441C85.5759 4.70179 85.1145 4.92048 84.5433 4.92048C83.972 4.92048 83.4008 4.65805 82.8076 4.11133C82.2364 3.56461 81.775 3.30219 81.4454 3.30219C80.9181 3.30219 80.281 3.73956 79.49 4.59245C78.721 5.4672 78.3256 6.36382 78.3256 7.28231V17.6481C78.3256 18.9602 78.6332 19.8569 79.2703 20.3598C79.8855 20.8628 80.9401 21.1034 82.3901 21.0815V21.825H70.8336V21.0815V21.0815ZM95.2869 0.131213C95.4847 0.0656064 95.4627 0.349901 95.4627 0.481113V17.0358C95.4627 18.7853 95.6824 19.8787 96.0999 20.3161C96.5393 20.7535 97.484 21.0378 99 21.169V21.8469H87.7071V21.169C89.3768 21.0159 90.4094 20.7316 90.8489 20.338C91.2883 19.9225 91.486 18.8509 91.486 17.0577V5.90457C91.486 4.92048 91.4201 4.22068 91.2883 3.84891C91.0466 3.21471 90.5852 2.90855 89.8382 2.90855C89.6624 2.90855 89.5087 2.93042 89.3549 2.95229C89.2011 2.97416 88.7397 3.10537 87.9707 3.32406V2.42744C87.9707 2.40557 91.2883 1.37773 95.2869 0.131213V0.131213Z" fill="#463F3C"></path>
</svg>
