<svg xmlns="http://www.w3.org/2000/svg" fill="none" viewBox="0 0 226 34" height="34" width="226">
<g clip-path="url(#clip0_1887_63786)">
<path fill="#46413C" d="M33.3577 25.1671V19.1404L32.6738 18.7717L17.1201 27.3182L2.35128 19.2043L2.35444 15.7097L17.1201 23.732L33.3577 14.8992V8.96389L32.6738 8.59522L17.1201 17.1417L2.95956 9.35997L17.1201 1.62703L28.5545 7.87006L29.4117 7.40389V6.7092L17.1201 0L0.885742 8.86335V9.73779L17.1201 18.5951L31.889 10.533V14.0674L17.1201 22.1813L1.56966 13.6378L0.885742 14.0064V20.03L17.1201 28.8629L31.889 20.8284V24.3414L17.1201 32.4553L1.56966 23.9088L0.885742 24.2775V25.1671L17.1201 34L33.3577 25.1671Z"></path>
<path fill="#46413C" d="M64.2524 1.79138V29.0761V29.0791H59.9062V27.0468C59.9062 26.8975 59.8084 26.7604 59.6603 26.7086C59.5154 26.6568 59.3483 26.6995 59.2474 26.8153C57.7346 28.5551 55.4402 29.5513 52.9599 29.5513C50.3407 29.5513 47.9203 28.5368 46.1427 26.6934C44.3621 24.8439 43.3787 22.3152 43.3787 19.5759C43.3787 13.9849 47.5862 9.60355 52.9599 9.60355C55.4875 9.60355 57.7788 10.5603 59.2507 12.2269C59.3515 12.3396 59.5185 12.3823 59.6635 12.3305C59.8084 12.2787 59.9062 12.1416 59.9062 11.9923V1.79138H64.2524ZM47.7663 19.5795C47.7663 23.0347 50.4767 25.7433 53.9373 25.7433C57.3978 25.7433 60.1083 23.0347 60.1083 19.5795C60.1083 16.1243 57.3978 13.4157 53.9373 13.4157C50.4767 13.4157 47.7663 16.1243 47.7663 19.5795Z" clip-rule="evenodd" fill-rule="evenodd"></path>
<path fill="#46413C" d="M87.4623 10.0731V29.0703H83.154V27.0076C83.154 26.8584 83.0562 26.7212 82.9081 26.6694C82.7632 26.6176 82.5961 26.6602 82.4952 26.779C80.9887 28.5372 78.6974 29.5457 76.2077 29.5457C70.834 29.5457 66.6265 25.1642 66.6265 19.5733C66.6265 13.9822 70.834 9.60083 76.2077 9.60083C78.8046 9.60083 81.036 10.5271 82.4952 12.212C82.5961 12.3278 82.76 12.3704 82.9081 12.3186C83.0562 12.2668 83.154 12.1328 83.154 11.9804V10.0731H87.4623ZM71.0172 19.5743C71.0172 23.0295 73.7276 25.7382 77.1882 25.7382C80.6487 25.7382 83.3592 23.0295 83.3592 19.5743C83.3592 16.1191 80.6487 13.4105 77.1882 13.4105C73.7276 13.4105 71.0172 16.1191 71.0172 19.5743Z" clip-rule="evenodd" fill-rule="evenodd"></path>
<path fill="#46413C" d="M124.293 10.0731V29.0703H119.984V27.0076C119.984 26.8584 119.886 26.7212 119.738 26.6694C119.593 26.6176 119.426 26.6633 119.325 26.779C117.819 28.5372 115.528 29.5457 113.038 29.5457C107.664 29.5457 103.457 25.1642 103.457 19.5733C103.457 13.9822 107.664 9.60083 113.038 9.60083C115.635 9.60083 117.866 10.5271 119.325 12.212C119.426 12.3278 119.59 12.3704 119.738 12.3186C119.886 12.2668 119.984 12.1328 119.984 11.9804V10.0731H124.293ZM107.847 19.5743C107.847 23.0295 110.558 25.7382 114.018 25.7382C117.479 25.7382 120.189 23.0295 120.189 19.5743C120.189 16.1191 117.479 13.4105 114.018 13.4105C110.558 13.4105 107.847 16.1191 107.847 19.5743Z" clip-rule="evenodd" fill-rule="evenodd"></path>
<path fill="#46413C" d="M132.316 26.7995C132.272 26.7995 132.228 26.8056 132.187 26.8208C132.042 26.8696 131.945 27.0067 131.948 27.1529V29.0694H127.598L127.608 1.78467H131.954L131.945 12.1014C131.945 12.2537 132.042 12.3908 132.19 12.4426C132.335 12.4944 132.502 12.4518 132.603 12.336C134.116 10.5962 136.411 9.59989 138.891 9.59989C141.51 9.59989 143.931 10.6145 145.708 12.4579C147.492 14.3073 148.472 16.8362 148.472 19.5753C148.472 25.1663 144.265 29.5478 138.891 29.5478C136.363 29.5478 134.072 28.5911 132.6 26.9244C132.528 26.8451 132.427 26.7995 132.316 26.7995ZM137.91 13.4105C134.45 13.4105 131.739 16.1192 131.739 19.5743C131.739 23.0295 134.45 25.7382 137.91 25.7382C141.371 25.7382 144.081 23.0295 144.081 19.5743C144.081 16.1192 141.371 13.4105 137.91 13.4105Z" clip-rule="evenodd" fill-rule="evenodd"></path>
<path fill="#46413C" d="M160.982 13.9631C161.389 13.9631 161.77 13.9966 162.035 14.0576V9.75234C161.893 9.71883 161.603 9.68225 161.31 9.68225C159.056 9.68225 156.973 10.7974 155.873 12.592C155.788 12.7322 155.615 12.7992 155.454 12.7565C155.29 12.7139 155.177 12.5707 155.177 12.4092V10.0753H150.868V29.0726H155.214V20.718C155.218 16.553 157.427 13.9631 160.982 13.9631Z"></path>
<path fill="#46413C" d="M169.146 10.0743H164.756V29.0716H169.146V10.0743Z"></path>
<path fill="#46413C" d="M166.9 1.8103C165.431 1.8103 164.238 2.96507 164.238 4.38491C164.238 5.80475 165.431 6.95952 166.9 6.95952C168.37 6.95952 169.563 5.80475 169.563 4.38491C169.56 2.96507 168.367 1.8103 166.9 1.8103Z"></path>
<path fill="#46413C" d="M182.043 9.60083C176.016 9.60083 171.645 13.7964 171.645 19.5733C171.645 22.3825 172.668 24.9236 174.532 26.7303C176.403 28.5462 179.057 29.5457 182 29.5457C184.437 29.5457 186.341 29.0794 189.918 26.5384L187.45 24.0216C185.692 25.1521 184.053 25.7004 182.449 25.7004C178.814 25.7004 176.073 23.068 176.073 19.5762C176.073 16.0846 178.814 13.4521 182.449 13.4521C184.181 13.4521 185.789 14.0005 187.366 15.1309L190.123 12.605C186.921 9.91161 183.981 9.60083 182.043 9.60083Z"></path>
<path fill="#46413C" d="M197.558 20.6972C197.628 20.6362 197.718 20.6027 197.811 20.6027H197.832C197.94 20.6119 198.034 20.6607 198.1 20.7367L205.053 29.07L210.402 29.0731L201.406 18.5552C201.283 18.4121 201.293 18.2018 201.428 18.0708L209.698 10.0758H204.397L197.275 16.9922C197.171 17.0958 197.009 17.1263 196.868 17.0714C196.726 17.0136 196.638 16.8824 196.638 16.7393L196.647 1.79138H192.291V29.0761H196.638V21.6753C196.638 21.5748 196.682 21.4771 196.758 21.4101L197.558 20.6972Z"></path>
<path fill="#46413C" d="M217.49 29.548C221.054 29.548 224.662 27.464 224.662 23.4818C224.662 20.8827 222.98 19.0913 219.519 18.0005L217.153 17.2509C215.56 16.7391 214.79 16.0017 214.79 15.0023C214.79 13.8598 215.852 13.0615 217.37 13.0615C218.816 13.0615 220.103 13.9725 220.916 15.5629L224.408 13.747C223.134 11.1907 220.443 9.60632 217.37 9.60632C213.475 9.60632 210.645 12.0255 210.645 15.3588C210.645 17.9913 212.274 19.7737 215.623 20.8005L218.036 21.5501C219.744 22.0711 220.44 22.7231 220.44 23.8017C220.44 25.4104 218.895 25.9802 217.574 25.9802C215.81 25.9802 214.254 24.8742 213.485 23.0887L209.963 24.8651C211.127 27.7535 214.004 29.548 217.49 29.548Z"></path>
<path fill="#46413C" d="M99.5077 29.3531C100.879 29.3531 102.124 29.2374 102.808 29.1307V25.4988C102.234 25.5719 101.251 25.636 100.627 25.636C98.8616 25.636 97.5127 25.3434 97.5127 21.6688V13.8598C97.5127 13.6617 97.6797 13.5002 97.8846 13.5002H102.117L102.114 10.0725L97.8814 10.0755C97.6766 10.0755 97.5095 9.91406 97.5095 9.71602V4.20728L93.1886 4.21032L93.1917 9.71602C93.1917 9.91406 93.0247 10.0755 92.8198 10.0755H89.791L89.7943 13.5033L92.8198 13.5002C93.0247 13.5002 93.1917 13.6617 93.1917 13.8598V22.7079C93.1949 29.3531 97.7805 29.3531 99.5077 29.3531Z"></path>
</g>
<defs>
<clipPath id="clip0_1887_63786">
<rect transform="translate(0.885742)" fill="white" height="34" width="225.048"></rect>
</clipPath>
</defs>
</svg>
