<svg xmlns="http://www.w3.org/2000/svg" fill="none" viewBox="0 0 192 36" height="36" width="192">
<path fill="#46413C" d="M190.029 16.7109C191.143 17.8886 191.716 19.4801 191.716 21.5172V32.1804H187.547V22.7268C187.547 21.5491 187.196 20.5942 186.528 19.8939C185.859 19.1936 184.936 18.8435 183.759 18.8435C182.39 18.8753 181.276 19.321 180.48 20.244C179.684 21.1671 179.271 22.313 179.271 23.7454V32.1485H175.133V8.46684H179.271V18.3342C180.448 16.1061 182.486 14.9602 185.414 14.9284C187.356 14.9602 188.883 15.5332 190.029 16.7109ZM165.966 18.6207C164.597 18.6207 163.483 19.0981 162.623 20.0212C161.764 20.9443 161.35 22.1857 161.35 23.6499C161.35 25.1777 161.796 26.4191 162.623 27.3422C163.483 28.2652 164.597 28.7427 165.966 28.7427C168.003 28.7427 169.531 28.0743 170.549 26.7374L173.127 28.87C172.363 29.9841 171.313 30.8435 170.104 31.4164C168.862 32.0212 167.398 32.3077 165.743 32.3077C164.056 32.3077 162.592 31.9576 161.287 31.2255C160.013 30.5252 158.963 29.4748 158.263 28.1698C157.531 26.8647 157.18 25.3687 157.18 23.6499C157.18 21.931 157.562 20.4032 158.263 19.0981C158.963 17.7931 160.013 16.7427 161.318 16.0424C162.623 15.3103 164.119 14.9602 165.806 14.9602C167.366 14.9602 168.735 15.2149 169.944 15.7878C171.154 16.3607 172.141 17.0928 172.905 18.1114L170.422 20.4987C169.276 19.2573 167.78 18.6207 165.966 18.6207ZM154.539 15.1194V32.1804H150.401V29.4748C149.828 30.3979 149 31.13 148.045 31.6393C147.09 32.1485 145.976 32.4032 144.735 32.4032C143.112 32.4032 141.711 32.0212 140.501 31.2891C139.292 30.557 138.337 29.5385 137.669 28.2016C137 26.8647 136.65 25.3369 136.65 23.618C136.65 21.931 137 20.4032 137.669 19.0981C138.337 17.7931 139.292 16.7745 140.501 16.0424C141.711 15.3103 143.112 14.9602 144.703 14.9602C145.944 14.9602 147.058 15.2149 148.045 15.7241C149 16.2334 149.828 16.9655 150.432 17.8886V15.1512L154.539 15.1194ZM148.905 27.6286C149.764 26.8011 150.273 25.687 150.401 24.2865V23.0769C150.273 21.7082 149.764 20.5942 148.905 19.7347C148.045 18.9072 146.931 18.4615 145.594 18.4615C144.162 18.4615 143.016 18.939 142.125 19.9257C141.234 20.8806 140.788 22.1538 140.756 23.6817C140.788 25.2095 141.234 26.4509 142.125 27.4377C143.016 28.3926 144.162 28.9018 145.594 28.9018C146.931 28.9018 148.045 28.4881 148.905 27.6286ZM132.448 17.3156C133.817 18.8753 134.486 21.0398 134.486 23.8727C134.486 24.4138 134.486 24.8276 134.454 25.1141H121.913C122.199 26.3236 122.74 27.2785 123.6 27.9788C124.459 28.679 125.509 29.0292 126.751 29.0292C127.61 29.0292 128.47 28.87 129.234 28.5199C130.029 28.2016 130.73 27.7241 131.302 27.0875L133.531 29.4111C132.671 30.366 131.621 31.0981 130.443 31.5756C129.234 32.0849 127.865 32.3395 126.401 32.3395C124.65 32.3395 123.122 31.9894 121.817 31.2573C120.512 30.557 119.462 29.5066 118.761 28.2016C118.029 26.8966 117.679 25.4005 117.679 23.6817C117.679 21.9947 118.029 20.4668 118.761 19.1618C119.462 17.8568 120.544 16.8064 121.817 16.0743C123.122 15.3422 124.618 14.9602 126.305 14.9602C129.043 14.992 131.08 15.756 132.448 17.3156ZM130.73 22.313C130.698 21.0716 130.284 20.053 129.488 19.3209C128.692 18.5889 127.674 18.2069 126.369 18.2069C125.159 18.2069 124.141 18.5889 123.345 19.3209C122.517 20.053 122.04 21.0716 121.849 22.3448H130.73V22.313ZM113.223 15.8515C114.21 15.2785 115.356 14.9602 116.661 14.9284V18.939C114.91 18.8435 113.509 19.2255 112.459 20.1804C111.409 21.1034 110.899 22.3448 110.899 23.9363V32.1804H106.761V15.1194H110.899V18.3979C111.44 17.2838 112.236 16.4562 113.223 15.8515ZM103.642 31.13C102.273 31.9576 100.873 32.3713 99.3768 32.3713C97.9126 32.3713 96.703 31.9257 95.78 31.0663C94.8569 30.2069 94.3794 28.9337 94.3794 27.2467V11.1088L98.4855 10.6313V15.8196H103.356V18.8435H98.4855V26.5464C98.4855 27.3422 98.6447 27.8833 98.9311 28.2334C99.2176 28.5517 99.6632 28.7427 100.268 28.7427C100.905 28.7427 101.7 28.5199 102.687 28.0424L103.642 31.13ZM86.7402 15.1194H90.8463V24.7003C90.8463 30.2706 86.963 32.3713 83.016 32.3713C79.0691 32.3713 75.1858 30.3024 75.1858 24.7003V15.1194H79.2919V24.8276C79.2919 26.9602 80.8834 28.7109 83.016 28.7109C85.1487 28.7109 86.7402 26.9602 86.7402 24.8276V15.1194ZM66.7189 11.0451C68.5014 12 69.9656 13.4324 70.9842 15.1512C72.0346 16.9019 72.5439 18.8435 72.5439 20.9443C72.5439 23.0769 72.0346 25.0186 70.9842 26.7692C69.9656 28.5199 68.4696 29.9522 66.7189 30.939C64.9046 31.9576 62.8993 32.4668 60.703 32.4668C58.5067 32.4668 56.5014 31.9576 54.6871 30.939C52.9046 29.9522 51.4404 28.5199 50.4219 26.7692C49.3715 25.0186 48.8622 23.0769 48.8622 20.9443C48.8622 18.8117 49.3715 16.87 50.4219 15.1512C51.4404 13.4324 52.9365 12 54.6871 11.0451C56.5014 10.0583 58.5067 9.54907 60.703 9.54907C62.8993 9.54907 64.9046 10.0583 66.7189 11.0451ZM56.9471 14.3873C55.8012 15.0557 54.8463 15.9788 54.1778 17.1247C53.5094 18.2706 53.1593 19.5756 53.1593 20.9761C53.1593 22.3767 53.5094 23.6817 54.1778 24.8276C54.8463 25.9735 55.8012 26.9284 56.9471 27.5968C58.093 28.2652 59.3662 28.6154 60.703 28.6154C62.0081 28.6154 63.3131 28.2652 64.4272 27.5968C65.5731 26.9284 66.4961 25.9735 67.1327 24.8276C67.8012 23.6499 68.1513 22.313 68.1195 20.9761C68.1195 19.5756 67.7693 18.3024 67.1327 17.1247C66.4961 15.9788 65.5412 15.0239 64.4272 14.3873C63.3131 13.7188 62.0081 13.3687 60.703 13.3687C59.4298 13.3687 58.1248 13.7188 56.9471 14.3873ZM17.7004 0C23.5571 0 32.3741 1.81433 36.5121 5.92043C37.5624 6.97082 38.9311 9.00795 38.9311 12.0318C38.9311 17.3793 34.6341 25.5597 29.9232 30.3342C27.4723 32.7851 23.589 36 18.337 36C13.2123 36 9.2972 32.4987 8.18314 31.3846C3.85423 27.0239 0.734863 20.435 0.734863 14.2599C0.734863 10.3767 1.84892 6.97082 4.64998 4.13793C7.26006 1.49602 11.7481 0 17.7004 0ZM24.9577 21.2944C26.9311 19.321 27.4723 16.87 27.4723 15.5332C27.4723 14.5464 27.2176 13.1141 26.0081 11.9045C24.1301 10.0265 22.093 9.51724 19.833 9.51724C17.0001 9.51724 15.0903 10.4085 13.8171 11.6817C12.8304 12.6684 11.9709 14.2281 11.9709 16.4244C11.9709 18.6207 13.1168 20.7215 14.39 21.9947C15.5678 23.1724 17.3821 24.0318 19.2601 24.0318C21.138 24.0318 22.9842 23.2679 24.9577 21.2944Z"></path>
</svg>
