<svg xmlns="http://www.w3.org/2000/svg" fill="none" viewBox="0 0 120 30" height="30" width="120">
<path fill="#46413C" d="M8.64255 29.9884C7.00176 29.9116 5.59271 29.5789 4.42147 28.9917C3.31391 28.4365 2.50367 27.7188 1.80721 26.6759C0.860071 25.2577 0.430233 23.6383 0.299816 20.9968C0.260619 20.2029 0.259854 9.82663 0.298946 9.05304C0.409167 6.87124 0.694935 5.47707 1.28346 4.24995C2.54578 1.61788 4.8817 0.241499 8.45391 0.0249299C10.89 -0.122761 13.1457 0.390015 14.7236 1.45017C15.2702 1.81739 15.8903 2.38596 16.3158 2.90986C17.0462 3.8093 17.5084 4.8397 17.7696 6.15087C17.9512 7.06231 18.0027 7.6966 18.0222 9.26344L18.0383 10.5622H15.4996H12.9608L12.9436 9.68426C12.9188 8.42701 12.8194 7.69021 12.576 6.96022C12.375 6.35775 12.1357 5.94448 11.7672 5.56362C11.1316 4.90674 10.3714 4.63036 9.20847 4.63342C7.98667 4.63664 7.21535 4.90467 6.62481 5.53126C5.84323 6.36054 5.48439 7.69903 5.37616 10.1888C5.33276 11.1872 5.35491 20.188 5.40219 20.7633C5.53251 22.349 5.77759 23.2766 6.2502 23.9729C6.68519 24.6139 7.43787 25.0879 8.34512 25.2921C8.62617 25.3554 9.55836 25.382 9.88231 25.3361C11.2513 25.1418 12.1224 24.368 12.5851 22.9355C12.8159 22.2206 12.9163 21.4678 12.9433 20.2482L12.9611 19.4428H15.4961H18.0311V20.3497C18.0307 21.6478 17.9671 22.5565 17.8118 23.4748C17.5734 24.8841 17.0914 26.0543 16.3824 26.9449C14.9665 28.7237 12.9906 29.7148 10.3985 29.9466C10.0211 29.9804 8.99296 30.0048 8.64268 29.9884H8.64255ZM30.728 29.9772C28.0535 29.8118 26.0254 28.8958 24.6277 27.2221C23.4843 25.8528 22.9219 24.3483 22.6907 22.0402C22.6072 21.2074 22.5845 20.7265 22.5674 19.4283L22.5501 18.1223L28.8223 14.716C32.272 12.8425 35.1165 11.2935 35.1435 11.2737C35.189 11.2405 35.19 11.1773 35.1576 10.3994C35.0938 8.86897 35.0158 8.15218 34.8314 7.40116C34.4165 5.71075 33.5792 4.87973 32.0776 4.66781C31.6989 4.61437 30.8711 4.62292 30.5249 4.68384C29.5775 4.85054 28.8562 5.29953 28.378 6.02027C27.9902 6.60469 27.7754 7.222 27.6809 8.02322C27.6402 8.3687 27.5813 9.69872 27.5798 10.3082L27.5792 10.5622H25.0361H22.493L22.5122 9.85839C22.6114 6.2284 22.8266 5.10676 23.7064 3.63529C24.0064 3.13361 24.3316 2.71914 24.762 2.29002C25.4737 1.58038 26.2272 1.09304 27.2265 0.696191C29.6309 -0.258749 33.2651 -0.222004 35.6327 0.781186C36.8833 1.3111 37.9302 2.14298 38.604 3.14222C39.6042 4.6256 40.0898 6.39153 40.2333 9.06755C40.2789 9.91906 40.2562 21.5332 40.2078 22.0693C39.9811 24.5803 39.5896 25.7968 38.6179 27.0098C37.4369 28.4838 35.6538 29.4691 33.5141 29.83C32.7016 29.967 31.5489 30.0279 30.728 29.9772H30.728ZM32.3329 25.4766C33.9724 25.2024 34.8274 24.1149 35.1145 21.9387C35.1547 21.6337 35.1643 21.1841 35.1746 19.1163C35.1814 17.7635 35.1762 16.6569 35.1631 16.657C35.1501 16.6572 33.4612 17.5752 31.4101 18.6971L27.6808 20.7369L27.6712 20.9097C27.6595 21.1224 27.7128 21.8254 27.7696 22.2085C27.9101 23.1549 28.1916 23.8996 28.6082 24.4264C29.2397 25.225 30.2469 25.5984 31.6277 25.5458C31.8352 25.5379 32.1525 25.5068 32.3329 25.4766ZM88.2705 29.9776C85.1294 29.7905 82.8813 28.6611 81.5984 26.6257C80.7561 25.2893 80.345 23.8029 80.1334 21.3292C80.0862 20.7766 80.0633 9.91366 80.1071 8.83537C80.223 5.9852 80.6223 4.4665 81.599 3.16163C81.9916 2.63705 82.6959 1.96358 83.2718 1.56204C84.865 0.451179 87.14 -0.110926 89.5042 0.0221347C90.4279 0.0741215 91.0369 0.164303 91.7911 0.360793C93.7292 0.865771 95.1903 1.8869 96.2456 3.47412C97.1267 4.79931 97.5283 6.2021 97.7263 8.64673C97.7437 8.86222 97.7652 9.67877 97.774 10.4613L97.7899 11.8841L91.5155 15.2917C88.0646 17.1659 85.2224 18.7132 85.1996 18.7301C85.1643 18.7563 85.1624 18.8615 85.1868 19.4428C85.2616 21.218 85.3367 21.8934 85.5505 22.7125C85.9664 24.3062 86.784 25.1058 88.2147 25.3182C88.6067 25.3764 89.4357 25.3776 89.788 25.3205C90.7107 25.1708 91.4163 24.7536 91.9242 24.0573C92.1712 23.7185 92.4238 23.1565 92.5466 22.6721C92.6837 22.1319 92.7607 21.1752 92.7615 20.0015V19.4428H95.3055H97.8496L97.8297 20.3335C97.7657 23.1922 97.5557 24.5756 97.0163 25.6896C96.2875 27.195 95.1791 28.3238 93.7337 29.0328C92.7617 29.5095 91.6286 29.8128 90.3688 29.9335C89.8022 29.9878 88.7958 30.009 88.2701 29.9776L88.2705 29.9776ZM88.9785 11.2822L92.6972 9.24843L92.6841 8.94033C92.5772 6.43357 91.8542 5.11065 90.3287 4.63071C89.9129 4.49988 89.5748 4.45768 88.9455 4.45802C88.5441 4.45825 88.28 4.47286 88.0891 4.50544C86.4089 4.79216 85.5461 5.8343 85.2612 7.92119C85.18 8.51656 85.159 9.20517 85.1586 11.2981C85.1586 13.2446 85.1609 13.3534 85.209 13.3352C85.2369 13.3246 86.9332 12.4007 88.9785 11.2822ZM110.61 29.9871C107.765 29.8603 105.479 28.8628 104.105 27.1481C103.797 26.7633 103.58 26.4177 103.34 25.9291C102.825 24.8811 102.568 23.7419 102.42 21.8516C102.391 21.4803 102.383 19.9424 102.383 15.0025C102.383 10.0626 102.391 8.5247 102.42 8.15336C102.627 5.51362 103.105 4.05317 104.188 2.74913C105.329 1.37705 107.161 0.444907 109.333 0.131399C109.989 0.0367951 110.329 0.0153133 111.162 0.0159358C112.264 0.0167629 113.005 0.0978267 113.907 0.316256C115.495 0.700861 116.802 1.41533 117.793 2.43971C119.113 3.80374 119.648 5.31287 119.845 8.22592C119.899 9.0176 119.899 21.0266 119.845 21.7645C119.631 24.7143 119.127 26.1622 117.847 27.5092C116.219 29.2208 113.593 30.12 110.61 29.9871H110.61ZM111.849 25.3198C113.517 25.0492 114.433 23.8477 114.716 21.5569C114.813 20.7745 114.823 20.0547 114.81 14.5381C114.797 9.01579 114.797 8.97693 114.686 8.1969C114.4 6.1684 113.567 5.04312 112.116 4.72652C111.387 4.56735 110.464 4.59949 109.828 4.8062C109.556 4.89479 109.184 5.09002 108.961 5.26202C108.221 5.83099 107.736 6.89625 107.55 8.35652C107.45 9.14215 107.443 9.65668 107.454 15.3653C107.467 21.3771 107.462 21.1838 107.607 22.032C107.937 23.9746 108.843 25.0681 110.326 25.3169C110.659 25.3727 111.512 25.3744 111.849 25.3198ZM44.913 19.2469C44.9232 8.22989 44.9153 8.79617 45.078 7.51489C45.3046 5.73086 45.7554 4.38622 46.513 3.23419C47.7022 1.42589 49.6918 0.372726 52.4943 0.0681646C53.1279 -0.00069059 54.4652 -0.00159449 55.0918 0.0664091C57.1612 0.291001 58.7026 0.881452 59.9087 1.91162L60.1804 2.14363L60.2843 2.05625C61.1567 1.32274 61.8614 0.915947 62.8613 0.568678C65.0391 -0.187631 68.1082 -0.177758 70.3207 0.592673C72.0132 1.18205 73.2103 2.12992 74.0463 3.54268C74.781 4.78418 75.1898 6.23522 75.3615 8.21141C75.4575 9.31464 75.4646 10.1165 75.4648 19.7548V29.3972H72.9264H70.388L70.3772 19.8999C70.3666 10.4524 70.3643 10.2237 70.2689 9.02401C70.1123 7.05301 69.6074 5.8104 68.7115 5.19107C68.1478 4.80136 67.4751 4.62992 66.5261 4.63409C64.3405 4.64371 63.2968 5.70317 62.9303 8.28396C62.867 8.72979 62.8252 9.25381 62.7822 10.1413C62.7653 10.4894 62.7539 14.461 62.7537 20.0595L62.7531 29.3972H60.1855H57.6179L57.6078 19.7403C57.6006 12.7258 57.5885 9.96022 57.5638 9.63347C57.4984 8.76773 57.4657 8.4549 57.3978 8.04893C57.0847 6.17748 56.4115 5.20062 55.164 4.80764C54.6915 4.65883 53.9751 4.5914 53.3936 4.64101C52.4834 4.71868 51.8719 4.95394 51.377 5.41694C50.6605 6.08715 50.2407 7.25433 50.1003 8.96597C50.0045 10.134 50.0027 10.3113 49.9922 19.8418L49.9817 29.3972H47.4424H44.9032L44.913 19.2469Z"></path>
</svg>
