<svg width="160" height="19" viewBox="0 0 160 19" fill="none" xmlns="http://www.w3.org/2000/svg">
<g clip-path="url(#clip0_4044_75170)">
<path d="M40.0074 6.14943H25.5157L24.998 6.54794V18.9502H28.9833V14.2682L29.3455 13.9196H40.0073C42.6985 13.9196 43.9407 13.2223 43.9407 11.4293V8.59016C43.9409 6.84674 42.6987 6.14943 40.0074 6.14943ZM40.0074 10.7318C40.0074 11.5784 39.438 11.7279 38.1441 11.7279H29.3974L28.9833 11.3793V8.73946L29.3455 8.39081H38.144C39.3862 8.39081 40.0072 8.54024 40.0072 9.38692L40.0074 10.7318V10.7318ZM51.2902 8.49038L54.7578 13.3716L54.5508 13.8199H46.8909L44.9242 16.1609H56.3105L57.1386 16.6091L58.8983 18.9501H63.5046L53.4122 6M96.9907 16.4597V12.9732L97.4048 12.6245H105.117V10.4329H92.902V18.9501H110.913V16.7586H97.4566M92.902 6.14943H111.068V8.54024H92.902V6.14943ZM72.6655 8.44059H87.3124C87.1053 6.64752 85.9149 6.14943 83.0166 6.14943H72.5102C69.1978 6.14943 68.1627 6.74716 68.1627 9.18769V15.9616C68.1627 18.3525 69.1978 19 72.5102 19H83.0166C85.9667 19 87.1053 18.4521 87.2089 16.6091H72.6655L72.2514 16.2106V8.73946M15.1645 11.1303H4.5545L4.24394 10.7817V8.59009L4.5545 8.34108H18.8909L19.0979 7.89278C18.6321 6.69731 17.3382 6.09971 15.0092 6.09971H5.02026C1.70791 6.09971 0.672777 6.69738 0.672777 9.13791V10.5824C0.672777 12.9733 1.70791 13.6208 5.02026 13.6208H15.6303L15.9408 13.9195V16.2107L15.682 16.5594H0.362222C0.362222 16.5594 0 16.7586 0 16.8084C0.258749 18.5019 1.44916 18.9501 4.29568 18.9501H15.1645C18.4769 18.9501 19.5638 18.3525 19.5638 15.9119V14.1685C19.5637 11.7778 18.4769 11.1303 15.1645 11.1303M122.506 6.09964H116.503L116.192 6.69731L122.817 11.3793C124.059 10.682 125.457 9.98472 126.906 9.28734M127.889 14.8659L133.738 18.9501H139.741L140 18.4022L131.305 12.2758C130.166 13.1225 128.976 13.9693 127.889 14.8659Z" fill="#463F3C"></path>
<path d="M120.911 19H115.467L115 18.3137C118.682 14.9314 135.17 0.519611 171 -1C171 -1 140.978 -0.0196645 120.911 19Z" fill="#463F3C"></path>
</g>
<defs>
<clipPath id="clip0_4044_75170">
<rect width="160" height="19" fill="white"></rect>
</clipPath>
</defs>
</svg>
