<svg xmlns="http://www.w3.org/2000/svg" fill="none" viewBox="0 0 127 44" height="44" width="127">
<g clip-path="url(#clip0_1887_63601)">
<path fill="#46413C" d="M0.699407 22.5906C0.404105 10.7786 9.70612 1.03359 21.5182 0.738286C33.3303 0.442984 43.0752 9.745 43.3705 21.5571V22.7383C43.0752 34.5504 33.1826 43.8524 21.3705 43.5571C10.1491 43.1141 0.994709 33.9598 0.699407 22.5906ZM34.5115 25.396V26.2819C34.5115 31.1544 28.9008 34.9933 21.9612 34.9933C15.0216 34.9933 9.41087 31.1544 9.41087 26.2819V25.396C7.78671 24.6578 7.1961 22.8859 7.78671 21.2618C8.22966 20.0806 9.41087 19.3423 10.5921 19.49C11.478 19.49 12.2162 19.7853 12.8068 20.3759C15.3169 18.7517 18.2699 17.7182 21.2229 17.7182L22.8471 10.3356C22.8471 10.188 22.9948 10.0403 22.9948 10.0403C23.1424 9.89265 23.2901 9.89265 23.4377 9.89265L28.6055 11.0739C29.1961 10.0403 30.525 9.4497 31.5585 10.0403C32.5921 10.6309 33.1827 11.9598 32.5921 12.9933C32.0015 14.0269 30.6726 14.6175 29.6391 14.0269C28.9008 13.7316 28.4579 12.9933 28.4579 12.1074L23.8807 11.0739L22.4042 17.7182C25.6525 17.8658 28.6055 18.8994 30.6726 20.3759C31.8538 19.1947 33.9209 19.1947 35.1021 20.3759C35.6928 20.9665 35.9881 21.7047 35.9881 22.5906C36.431 23.9195 35.5451 24.9531 34.5115 25.396ZM17.2364 27.0202C18.4176 27.0202 19.4511 25.9866 19.4511 24.8054C19.4511 23.6242 18.4176 22.5906 17.2364 22.5906C16.0552 22.5906 15.0216 23.6242 15.0216 24.8054C15.0216 25.9866 15.9075 27.0202 17.2364 27.0202ZM27.4243 29.8255C27.129 29.5302 26.8337 29.5302 26.686 29.8255C25.8001 30.8591 23.733 31.1544 22.2565 31.1544C20.78 31.1544 18.7129 30.8591 17.827 29.8255C17.5317 29.5302 17.2364 29.5302 17.0887 29.8255C16.7934 30.1208 16.7934 30.4161 17.0887 30.5638C18.5652 32.0403 21.5183 32.188 22.4042 32.188C23.2901 32.188 26.0954 32.0403 27.7196 30.5638C27.6367 30.4809 27.6003 30.3514 27.5582 30.2015C27.5254 30.0845 27.489 29.955 27.4243 29.8255ZM29.1961 24.8054C29.1961 23.6242 28.1625 22.5906 26.9813 22.5906C25.8001 22.5906 24.7666 23.6242 24.7666 24.8054C24.7666 25.9866 25.8001 27.0202 26.9813 27.0202C28.1625 27.0202 29.1961 25.9866 29.1961 24.8054ZM91.6524 32.6309C91.6524 33.5168 90.9141 34.1074 90.1759 34.1074C89.4376 34.1074 88.847 33.5168 88.6994 32.9262C87.6658 33.9598 86.3369 34.5504 84.7128 34.5504C80.7262 34.5504 77.4779 30.8591 77.4779 26.4296C77.4779 22 80.7262 18.3088 84.7128 18.3088C86.3369 18.3088 87.5182 18.7517 88.6994 19.7853V12.9933C88.847 12.1074 89.5853 11.5168 90.3235 11.6645C91.0618 11.6645 91.6524 12.2551 91.6524 12.9933V32.6309ZM88.847 26.4296C88.847 23.6242 86.9276 21.2618 84.5651 21.2618C82.2027 21.2618 80.4309 23.6242 80.4309 26.4296C80.4309 29.2349 82.3504 31.4497 84.7128 31.4497C86.9276 31.5973 88.847 29.2349 88.847 26.4296ZM112.767 13.2886C111.29 13.2886 110.109 14.4698 110.109 15.9463C110.109 17.4228 111.29 18.6041 112.767 18.6041C114.243 18.6041 115.424 17.4228 115.424 15.9463C115.424 14.4698 114.243 13.2886 112.767 13.2886ZM64.9276 27.4631H74.2296C75.5585 27.4631 76.2967 26.4296 76.4444 25.6913C76.4444 25.3453 76.3937 25.1007 76.3517 24.898C76.322 24.7547 76.2967 24.6324 76.2967 24.5101C75.4108 21.1141 72.6054 18.4564 69.2095 18.4564C65.2229 18.4564 61.9746 22.1477 61.9746 26.5772C61.9746 31.0067 65.2229 34.698 69.2095 34.698C71.7195 34.698 73.4913 33.8121 74.8202 32.3356C75.4108 31.5974 75.2632 30.5638 74.5249 29.9732C73.7866 29.5302 73.0484 29.6779 72.4578 30.1208C71.8672 30.7114 70.8336 31.5974 69.0618 31.5974C66.9947 31.5974 65.3705 29.8255 64.9276 27.4631ZM73.0484 24.8054H64.9276C65.6658 22.7383 67.1423 21.4094 69.0618 21.4094C70.8336 21.4094 72.4578 22.8859 73.0484 24.8054ZM61.827 19.9329C61.827 19.1947 61.2364 18.6041 60.4981 18.4564C58.431 18.1611 56.3639 18.8994 55.035 20.5235V20.3759C55.035 19.49 54.2968 18.8994 53.5585 18.8994C52.6726 18.8994 52.082 19.6376 52.082 20.3759V32.9262C52.082 33.6645 52.6726 34.4027 53.5585 34.5504C54.4444 34.5504 55.1827 33.9598 55.1827 33.0739V26.5772C55.1827 23.7718 57.3975 21.4094 60.3505 21.7047H60.6458C61.2364 21.4094 61.827 20.6712 61.827 19.9329ZM112.766 20.2282C113.505 20.0806 114.243 20.6712 114.391 21.5571V32.7786C114.391 33.5168 113.8 34.1074 113.062 34.1074C112.324 34.2551 111.585 33.6645 111.438 32.7786V21.5571C111.438 20.8188 112.028 20.2282 112.766 20.2282ZM106.122 34.1074C106.861 34.1074 107.599 33.5168 107.599 32.6309V12.9933C107.599 12.2551 107.008 11.6645 106.27 11.6645C105.532 11.5168 104.793 12.1074 104.646 12.9933V19.7853C103.465 18.7517 102.283 18.3088 100.659 18.3088C96.6726 18.3088 93.4243 22 93.4243 26.4296C93.4243 30.8591 96.6726 34.5504 100.659 34.5504C102.283 34.5504 103.612 33.9598 104.646 32.9262C104.793 33.5168 105.384 34.1074 106.122 34.1074ZM100.512 21.2618C102.874 21.2618 104.793 23.6242 104.793 26.4296C104.793 29.2349 103.022 31.5973 100.512 31.4497C98.1491 31.4497 96.2297 29.2349 96.2297 26.4296C96.2297 23.4765 98.1491 21.2618 100.512 21.2618ZM122.069 32.7786V21.4094H123.397C124.136 21.4094 124.726 20.8188 124.726 20.0806C124.726 19.3423 124.136 18.6041 123.397 18.6041H123.25H121.921V16.3893C121.921 15.651 121.33 14.9128 120.444 14.7651C119.559 14.7651 118.82 15.3557 118.82 16.2416V18.4564H117.491C116.753 18.4564 116.163 19.047 116.163 19.7853C116.163 20.5235 116.753 21.2618 117.491 21.2618H118.82V32.6309C118.82 33.5168 119.559 34.1074 120.297 34.1074C121.478 34.2551 122.069 33.5168 122.069 32.7786Z" clip-rule="evenodd" fill-rule="evenodd"></path>
</g>
<defs>
<clipPath id="clip0_1887_63601">
<rect transform="translate(0.699463)" fill="white" height="44" width="125.503"></rect>
</clipPath>
</defs>
</svg>
