<svg xmlns="http://www.w3.org/2000/svg" fill="none" viewBox="0 0 156 32" height="32" width="156">
<path fill="#46413C" d="M60.535 2.51359C60.535 0.990936 61.671 0 63.1936 0C64.7163 0 65.7797 0.990936 65.7797 2.51359C65.7797 4.03625 64.7163 5.02719 63.1936 5.02719C61.5985 5.02719 60.535 4.03625 60.535 2.51359ZM31.4112 9.98186C29.961 9.98186 29.0426 10.7553 29.0426 11.8187C29.0426 13.2719 30.7214 13.7028 32.6937 14.209C35.4779 14.9237 38.847 15.7884 38.9036 19.8912C38.9036 23.71 35.9308 26.151 31.2903 26.151C27.3991 26.151 23.8221 23.8066 23.8221 19.9879H28.1725C28.1725 21.9698 29.381 22.6465 31.3629 22.6465C33.1272 22.6465 34.3357 21.7281 34.3357 20.3504C34.3357 18.5809 32.4588 18.0981 30.3508 17.5559C27.6507 16.8614 24.5713 16.0694 24.5713 12.3504C24.5713 8.84591 27.3266 6.54984 31.5079 6.54984C34.9399 6.54984 38.4444 8.53171 38.4444 11.8912H34.1665C34.1665 10.7553 32.8613 9.98186 31.4112 9.98186ZM45.671 10.9728C46.5169 8.45921 48.4988 6.54984 51.0124 6.54984C55.2662 6.54984 58.1665 10.4411 58.0698 16.29C58.0698 22.0906 55.0245 26.0544 50.9157 26.0544C48.7889 26.0544 46.807 24.5317 45.9611 22.4773H45.816V32H41.2481V7.08156H43.2299C44.5351 7.08156 45.526 8.16918 45.526 9.37764V10.9728H45.671ZM45.7435 17.4501C45.7435 20.2538 47.2904 22.0906 49.4898 22.0906C52.0034 22.0906 53.5985 19.7462 53.526 16.3142C53.526 12.8097 51.9309 10.5136 49.4898 10.5136C47.2662 10.5136 45.7435 12.423 45.7435 15.2507V17.4501ZM65.4172 7.00906H60.8492V25.4501H65.4172V7.00906ZM73.6347 11.6495H73.4897V7.08155H69.2117V25.5226H73.7797V15.9275C73.7797 12.8822 75.0849 11.577 78.0577 11.577H80.1846V7.08155H78.2752C76.245 7.00905 74.2631 8.82174 73.6347 11.6495ZM81.8765 13.0272C81.8765 9.30513 85.526 6.54984 89.8039 6.54984C94.2269 6.54984 97.0547 8.84591 97.0305 12.568V25.4501H92.5351V22.0181H92.3901C91.8583 24.2175 89.949 25.9819 87.3629 25.9819C84.1 25.9819 81.7314 23.71 81.7314 20.423C81.7314 17.5952 83.5441 15.7825 87.8221 14.4048L91.1816 13.3414C92.0033 13.0997 92.3901 12.713 92.3901 12.0362C92.3901 10.8278 91.3991 10.0544 89.7314 10.0544C87.7496 10.0544 86.0819 10.9003 86.0819 13.0272H81.8765ZM88.9097 23.0332C90.9641 23.0332 92.4867 21.0513 92.4867 18.2961V16.1692L88.8372 17.4743C87.097 18.1752 86.3236 18.997 86.3236 20.3746C86.3236 21.9698 87.387 23.0332 88.9097 23.0332ZM114.746 0C113.224 0 112.088 0.990936 112.088 2.51359C112.088 4.03625 113.151 5.02719 114.746 5.02719C116.269 5.02719 117.333 4.03625 117.333 2.51359C117.333 0.990936 116.269 0 114.746 0ZM112.45 7.00906H117.018V25.4501H112.45V7.00906ZM128.692 6.54984C123.423 6.54984 119.991 10.4411 119.991 16.3142C119.991 22.2598 123.423 26.0785 128.692 26.0785C133.961 26.0785 137.466 22.2598 137.466 16.3142C137.369 10.3686 133.937 6.54984 128.692 6.54984ZM128.692 22.0906C126.179 22.0906 124.656 19.7946 124.656 16.29C124.656 12.713 126.251 10.4894 128.692 10.4894C131.278 10.4894 132.801 12.7855 132.801 16.29C132.728 19.8187 131.206 22.0906 128.692 22.0906ZM109.236 7.00908V10.3686H105.659V19.9396C105.659 21.3172 106.118 21.7039 107.641 21.7039H109.236V25.4502H106.118C102.396 25.4502 101.018 24.3867 101.018 20.9547V1.52267H103.145C104.523 1.52267 105.586 2.58611 105.586 3.96376V7.00908H109.236ZM149.719 6.54984C147.061 6.54984 145.224 8.53171 144.233 11.287H144.088V9.37764C144.088 8.16918 143.097 7.08156 141.792 7.08156H139.81V25.5226H144.378V16.0725C144.378 12.6405 145.901 10.5861 148.124 10.5861C149.888 10.5861 150.879 11.722 150.879 13.5589V25.5226H155.447V12.7855C155.52 8.91842 153.393 6.54984 149.719 6.54984ZM8.61963 19.8671H7.24199L5.59848 25.4985H0.716309L8.3296 1.571H15.1211L22.7344 25.4985H17.7072L16.0396 19.8671H14.6619C13.4535 19.8671 12.4625 18.8761 12.4625 17.6677V15.7583H14.8311L11.7133 5.07553H11.5683L8.45045 15.7583H10.819V17.6677C10.819 18.8761 9.82809 19.8671 8.61963 19.8671Z" clip-rule="evenodd" fill-rule="evenodd"></path>
</svg>
