<svg xmlns="http://www.w3.org/2000/svg" fill="none" viewBox="0 0 180 42" height="42" width="180">
<g clip-path="url(#clip0_1887_63569)">
<path fill="#46413C" d="M36.5574 32.1301L27.6065 27.0702C26.3491 26.3618 24.741 26.7831 24.0132 28.0136C23.7313 28.4983 23.6207 29.0315 23.6741 29.5498V39.4383C23.6741 40.8515 24.8477 41.9999 26.2957 41.9999C27.7399 41.9999 28.9136 40.8515 28.9136 39.4383V33.752L33.9282 36.5859C35.1857 37.298 36.7975 36.873 37.5215 35.6425C38.2493 34.412 37.8187 32.8385 36.5574 32.1301Z"></path>
<path fill="#46413C" d="M14.2965 21.2871C14.3117 20.3736 13.8202 19.5234 13.0123 19.0648L4.06144 14.0087C3.67277 13.7887 3.22694 13.6731 2.78111 13.6731C1.86277 13.6731 1.00922 14.1541 0.551955 14.9297C-0.1568 16.1303 0.266167 17.6703 1.49315 18.3638L6.65259 21.2759L1.49315 24.1917C0.898712 24.5273 0.471934 25.068 0.296651 25.7168C0.117557 26.3656 0.209009 27.0442 0.551955 27.6259C1.00922 28.4014 1.86277 28.8824 2.7773 28.8824C3.22694 28.8824 3.67277 28.7668 4.06144 28.5469L13.0123 23.4907C13.8125 23.0358 14.3041 22.1932 14.2965 21.2871Z"></path>
<path fill="#46413C" d="M6.0924 10.4254L15.0433 15.4815C16.0874 16.0744 17.3753 15.8805 18.1984 15.0937C18.7205 14.6239 19.0444 13.9527 19.0444 13.207V3.07242C19.0444 1.65552 17.8707 0.50708 16.4265 0.50708C14.9785 0.50708 13.8049 1.65552 13.8049 3.07242V8.84071L8.72166 5.96962C7.46419 5.25743 5.85615 5.67878 5.12834 6.90925C4.40053 8.13972 4.83493 9.71322 6.0924 10.4254Z"></path>
<path fill="#46413C" d="M26.2196 21.6972C26.2196 21.8911 26.1052 22.1596 25.9643 22.3013L22.4167 25.7727C22.2757 25.9106 21.9975 26.0225 21.7994 26.0225H20.8963C20.6981 26.0225 20.42 25.9106 20.279 25.7727L16.7276 22.3013C16.5866 22.1596 16.4723 21.8911 16.4723 21.6972V20.8135C16.4723 20.6159 16.5866 20.3474 16.7276 20.2095L20.279 16.7343C20.42 16.5964 20.6981 16.4845 20.8963 16.4845H21.7994C21.9975 16.4845 22.2757 16.5964 22.4167 16.7343L25.9643 20.2095C26.1052 20.3474 26.2196 20.6159 26.2196 20.8135V21.6972ZM23.053 21.2721V21.2349C23.053 21.0932 22.9692 20.8955 22.8663 20.7911L21.8184 19.7695C21.7155 19.6651 21.5136 19.583 21.365 19.583H21.3269C21.1821 19.583 20.9801 19.6651 20.8734 19.7695L19.8293 20.7911C19.7264 20.8918 19.6426 21.0894 19.6426 21.2349V21.2721C19.6426 21.4176 19.7264 21.6152 19.8293 21.7159L20.8734 22.7412C20.9801 22.8419 21.1821 22.924 21.3269 22.924H21.365C21.5136 22.924 21.7155 22.8419 21.8184 22.7412L22.8663 21.7159C22.9692 21.6152 23.053 21.4176 23.053 21.2721Z"></path>
<path fill="#46413C" d="M27.6066 15.4815L36.5575 10.4254C37.8149 9.71695 38.2493 8.13971 37.5215 6.90925C36.7937 5.67878 35.1857 5.25743 33.9282 5.96961L28.9136 8.80342V3.07242C28.9136 1.65552 27.7399 0.50708 26.2957 0.50708C24.8477 0.50708 23.6741 1.65552 23.6741 3.07242V13.0057C23.6246 13.5202 23.7274 14.0571 24.0132 14.5419C24.741 15.7723 26.3491 16.1937 27.6066 15.4815Z"></path>
<path fill="#46413C" d="M16.8381 26.7721C16.2436 26.6602 15.6073 26.7534 15.0433 27.0704L6.0924 32.1302C4.83493 32.8387 4.40053 34.4122 5.12834 35.6426C5.85615 36.8768 7.46419 37.2982 8.72166 36.586L13.8049 33.7149V39.4384C13.8049 40.8516 14.9785 42.0001 16.4265 42.0001C17.8707 42.0001 19.0444 40.8516 19.0444 39.4384V29.3039C19.0444 28.0249 18.0879 26.966 16.8381 26.7721Z"></path>
<path fill="#46413C" d="M42.1513 14.8999C41.4273 13.6657 39.8155 13.2443 38.558 13.9565L29.6071 19.0126C28.7497 19.4973 28.2772 20.3848 28.2925 21.2871C28.2849 22.1857 28.7574 23.062 29.6071 23.5392L38.558 28.5991C39.8155 29.3075 41.4235 28.8862 42.1513 27.6557C42.8791 26.4252 42.4447 24.8517 41.1873 24.1396L36.1193 21.2759L41.1873 18.4123C42.4486 17.7038 42.8791 16.1303 42.1513 14.8999Z"></path>
<path fill="#46413C" d="M179.696 20.683V20.6867V20.78C179.696 21.2572 179.288 21.6115 178.785 21.6115H166.21C166.233 21.9023 166.271 22.1857 166.332 22.4653C166.915 25.1313 169.247 27.115 172.018 27.1374C172.025 27.1374 172.166 27.1374 172.383 27.1374C172.418 27.1374 172.452 27.1374 172.486 27.1374H172.749C172.806 27.1374 172.864 27.1374 172.924 27.1337C172.978 27.1337 173.031 27.1299 173.085 27.1262C173.088 27.1262 173.092 27.1262 173.096 27.1225C174.014 27.0516 174.94 26.6899 175.767 26.1083C175.767 26.1083 175.767 26.1083 175.771 26.1083C175.813 26.0784 175.859 26.0449 175.9 26.0113C175.908 26.0076 175.916 26.0001 175.927 25.9927C175.961 25.9666 176 25.9367 176.038 25.9069C176.053 25.8957 176.064 25.8845 176.08 25.8734C176.11 25.851 176.141 25.8249 176.171 25.7988C176.19 25.7839 176.213 25.7652 176.232 25.7503C176.255 25.7279 176.278 25.7056 176.304 25.6869C176.327 25.6645 176.354 25.6422 176.377 25.6198C176.396 25.6049 176.415 25.5862 176.434 25.5676C176.464 25.5415 176.491 25.5154 176.522 25.4893C176.537 25.4744 176.552 25.4557 176.567 25.4408C176.598 25.411 176.628 25.3812 176.659 25.3513C176.674 25.3364 176.685 25.3252 176.701 25.3103C176.731 25.2768 176.762 25.2432 176.792 25.2096C176.807 25.1985 176.819 25.1835 176.83 25.1686C176.865 25.1351 176.895 25.1015 176.926 25.068C176.937 25.053 176.952 25.0381 176.964 25.0232C176.994 24.9859 177.021 24.9524 177.051 24.9188C177.066 24.9002 177.082 24.8815 177.097 24.8629C177.124 24.8293 177.15 24.7995 177.173 24.7697C177.196 24.7398 177.215 24.7137 177.234 24.6876C177.253 24.6615 177.272 24.6392 177.291 24.6131C177.322 24.572 177.352 24.531 177.379 24.49C177.39 24.4751 177.398 24.4639 177.406 24.4527C177.482 24.3446 177.554 24.2327 177.627 24.1171C177.627 24.1171 177.627 24.1134 177.63 24.1097C177.646 24.0836 177.665 24.0612 177.684 24.0351C177.691 24.0239 177.699 24.0127 177.71 24.0053C177.722 23.9866 177.737 23.9754 177.749 23.9605C177.76 23.9493 177.771 23.9382 177.783 23.927C177.798 23.9158 177.81 23.9046 177.825 23.8934C177.836 23.8822 177.848 23.871 177.863 23.8636C177.882 23.8487 177.905 23.8338 177.928 23.8226C177.943 23.8114 177.962 23.8002 177.977 23.7927C177.996 23.7853 178.011 23.7778 178.027 23.7704C178.042 23.7629 178.057 23.7592 178.069 23.7517C178.092 23.7443 178.111 23.7405 178.133 23.7331C178.145 23.7294 178.152 23.7256 178.164 23.7219C178.236 23.707 178.313 23.6958 178.385 23.6958C178.465 23.6958 178.549 23.707 178.625 23.7294C178.629 23.7294 178.629 23.7294 178.633 23.7294C178.663 23.7405 178.697 23.748 178.728 23.7629C178.735 23.7666 178.743 23.7666 178.751 23.7704C178.785 23.7853 178.816 23.8002 178.846 23.8188L178.861 23.8263C179.28 24.1246 179.41 24.6466 179.155 25.0754L179.151 25.0791C179.12 25.1276 179.09 25.1761 179.059 25.2208C179.052 25.232 179.044 25.2432 179.037 25.2544C178.145 26.5818 176.933 27.6408 175.58 28.2746C175.55 28.2858 175.523 28.3007 175.493 28.3156C175.489 28.3156 175.481 28.3194 175.478 28.3194C174.853 28.6028 174.182 28.8004 173.466 28.8824C173.45 28.8824 173.435 28.8861 173.42 28.8861C173.359 28.8936 173.298 28.9011 173.237 28.9048C173.203 28.9048 173.168 28.9085 173.13 28.9122C173.088 28.9122 173.043 28.916 173.001 28.9197C172.917 28.9197 172.833 28.9234 172.749 28.9234C172.738 28.9234 172.421 28.9234 172.208 28.9234C172.086 28.9234 172.018 28.9234 172.01 28.9234C167.78 28.8936 164.374 25.4408 164.374 21.2125C164.374 16.9133 167.803 13.4419 172.067 13.4419C172.193 13.4419 172.319 13.4456 172.444 13.4494C173.93 13.5239 175.302 14.0198 176.442 14.8327C176.445 14.8364 176.449 14.8402 176.453 14.8402C176.518 14.8849 176.579 14.9334 176.64 14.9781C176.67 15.0042 176.704 15.0303 176.739 15.0564C176.769 15.0788 176.8 15.1049 176.83 15.1273C178.434 16.436 179.517 18.4011 179.696 20.6756V20.683ZM166.332 19.8552H177.714C177.15 17.1706 174.792 15.2279 172.067 15.2279C169.293 15.2279 166.953 17.1333 166.332 19.8552Z"></path>
<path fill="#46413C" d="M147.546 13.7029C147.687 13.8409 147.783 14.0273 147.806 14.2436C147.806 14.2734 147.809 14.3032 147.809 14.3331V28.0285C147.809 28.517 147.39 28.9234 146.895 28.9234C146.399 28.9234 145.984 28.517 145.984 28.0285V26.2089C145.637 26.6191 145.256 26.992 144.841 27.3164C144.83 27.3275 144.818 27.335 144.807 27.3462C144.769 27.376 144.727 27.4058 144.689 27.4319C143.431 28.379 141.903 28.9234 140.306 28.9234C137.734 28.9234 135.471 27.5848 134.122 25.5564C134.111 25.5415 134.095 25.5229 134.084 25.5079C134.046 25.4446 134.008 25.3812 133.966 25.314C133.939 25.273 133.916 25.232 133.89 25.191C133.863 25.15 133.84 25.1052 133.817 25.0605C133.779 24.9971 133.741 24.93 133.707 24.8666C133.695 24.8442 133.688 24.8219 133.676 24.7995C133.177 23.83 132.868 22.7375 132.815 21.5779C132.807 21.4474 132.804 21.3169 132.804 21.1827C132.804 21.0484 132.807 20.9179 132.815 20.7874C132.868 19.6278 133.177 18.5353 133.676 17.5621C133.688 17.5435 133.695 17.5211 133.707 17.4987C133.741 17.4353 133.779 17.3682 133.817 17.3048C133.84 17.2601 133.863 17.2153 133.89 17.1743C133.912 17.1333 133.939 17.0923 133.966 17.0513C134.004 16.9879 134.046 16.9208 134.084 16.8574C134.095 16.8425 134.111 16.8238 134.122 16.8089C135.471 14.7805 137.734 13.4419 140.306 13.4419C142.044 13.4419 143.686 14.0646 144.993 15.1496C145.352 15.4442 145.683 15.7686 145.984 16.1266V14.3331C145.984 14.3032 145.984 14.2734 145.988 14.2436C146.011 14.0273 146.106 13.8409 146.247 13.7029C146.247 13.7029 146.247 13.7029 146.247 13.6992C146.262 13.6843 146.281 13.6731 146.297 13.6582C146.3 13.6544 146.308 13.647 146.312 13.6432C146.323 13.6321 146.338 13.6246 146.35 13.6171C146.361 13.6097 146.373 13.5985 146.384 13.591C146.392 13.5873 146.399 13.5836 146.407 13.5761C146.426 13.5687 146.441 13.5575 146.46 13.5463C146.464 13.5463 146.468 13.5426 146.472 13.5426C146.495 13.5314 146.518 13.5202 146.54 13.509C146.54 13.509 146.54 13.509 146.544 13.509C146.598 13.4866 146.655 13.4717 146.712 13.4605C146.716 13.4605 146.723 13.4568 146.727 13.4568C146.75 13.4531 146.777 13.4494 146.803 13.4456C146.834 13.4456 146.864 13.4419 146.895 13.4419C146.929 13.4419 146.96 13.4456 146.99 13.4456C147.017 13.4494 147.04 13.4531 147.066 13.4568C147.07 13.4568 147.074 13.4605 147.082 13.4605C147.139 13.4717 147.196 13.4866 147.249 13.509H147.253C147.276 13.5202 147.299 13.5314 147.318 13.5426C147.325 13.5426 147.329 13.5463 147.333 13.5463C147.348 13.5575 147.367 13.5687 147.383 13.5761C147.39 13.5836 147.402 13.5873 147.409 13.591C147.421 13.5985 147.432 13.6097 147.444 13.6171C147.455 13.6246 147.466 13.6321 147.478 13.6432C147.485 13.647 147.489 13.6544 147.497 13.6582C147.512 13.6731 147.531 13.6843 147.543 13.6992C147.546 13.7029 147.546 13.7029 147.546 13.7029ZM140.306 27.1374C143.435 27.1374 145.984 24.4676 145.984 21.1827C145.984 17.8828 143.435 15.1981 140.306 15.1981C137.201 15.1981 134.629 17.879 134.629 21.1827C134.629 21.2871 134.633 21.3877 134.636 21.4884C134.636 21.5332 134.644 21.5742 134.644 21.6152C134.648 21.6748 134.652 21.7345 134.659 21.7904C134.663 21.8389 134.671 21.8837 134.674 21.9284C134.682 21.9806 134.686 22.0365 134.694 22.0887C134.701 22.1297 134.709 22.167 134.713 22.2043C134.724 22.264 134.732 22.3236 134.743 22.3833C134.751 22.4131 134.758 22.4392 134.762 22.4653C134.777 22.5362 134.793 22.6033 134.808 22.6741C134.812 22.689 134.815 22.704 134.823 22.7189C135.471 25.2693 137.696 27.1374 140.306 27.1374Z"></path>
<path fill="#46413C" d="M124.641 6.98376H124.394C124.363 6.98376 124.329 6.98376 124.298 6.98749C124.264 6.98376 124.234 6.98376 124.199 6.98376C124.112 6.98376 124.024 6.98376 123.936 6.98749C123.921 6.98749 123.902 6.99122 123.887 6.99122C123.818 6.99122 123.75 6.99495 123.681 7.00241C123.67 7.00241 123.654 7.00241 123.643 7.00241C123.571 7.00987 123.502 7.01359 123.433 7.02105C123.426 7.02478 123.418 7.02478 123.411 7.02478C123.334 7.03597 123.262 7.04342 123.193 7.05461C123.19 7.05461 123.186 7.05461 123.186 7.05461C122.725 7.12546 122.309 7.25223 121.94 7.43121C121.94 7.43494 121.936 7.43494 121.932 7.43494C121.879 7.46477 121.822 7.4946 121.768 7.52443C121.757 7.52815 121.749 7.53561 121.738 7.54307C121.692 7.56917 121.646 7.59527 121.601 7.6251C121.582 7.63629 121.566 7.6512 121.551 7.66239C121.513 7.68476 121.479 7.71086 121.441 7.73696C121.414 7.75933 121.387 7.78171 121.361 7.80035C121.338 7.81899 121.315 7.83764 121.292 7.85628C121.25 7.89357 121.212 7.92713 121.174 7.96441C121.166 7.97187 121.159 7.97933 121.151 7.98678C121.105 8.03526 121.06 8.08 121.014 8.12847C121.006 8.13966 120.999 8.15085 120.991 8.1583C120.953 8.19932 120.915 8.24033 120.88 8.28135C120.869 8.29999 120.854 8.31864 120.842 8.33728C120.812 8.37457 120.785 8.40813 120.758 8.44541C120.751 8.46033 120.743 8.47151 120.732 8.4827C120.701 8.52744 120.671 8.57219 120.644 8.61693C120.64 8.62439 120.637 8.62812 120.633 8.63558C120.385 9.03455 120.21 9.50436 120.099 10.0711C120.099 10.0786 120.099 10.0898 120.095 10.0972C120.08 10.1681 120.069 10.2426 120.057 10.3172C120.054 10.3396 120.05 10.362 120.05 10.3843C120.038 10.4477 120.031 10.5111 120.023 10.5782C120.019 10.6155 120.015 10.6528 120.012 10.6938C120.004 10.746 119.996 10.7945 119.993 10.8504C119.989 10.9064 119.985 10.9623 119.981 11.0219C119.977 11.0592 119.977 11.0965 119.974 11.1375C119.97 11.2158 119.966 11.2979 119.962 11.3799C119.962 11.4023 119.958 11.4172 119.958 11.4358C119.954 11.5402 119.954 11.6484 119.954 11.7528V13.2256H118.057C117.939 13.2219 117.821 13.2442 117.714 13.2815C117.371 13.4046 117.127 13.7215 117.127 14.0907C117.127 14.4374 117.302 14.732 117.577 14.9035C117.714 14.9893 117.874 15.0415 118.049 15.0489H118.057V15.0527H119.954V28.0583C119.951 28.077 119.954 28.0919 119.954 28.1105C119.954 28.1217 119.954 28.1329 119.954 28.1441C119.966 28.3529 120.054 28.5431 120.195 28.6885L120.198 28.6922C120.217 28.7109 120.24 28.7295 120.259 28.7481C120.263 28.7519 120.267 28.7519 120.271 28.7556C120.286 28.7705 120.305 28.7817 120.32 28.7929C120.328 28.8004 120.339 28.8078 120.347 28.8115C120.355 28.819 120.362 28.8227 120.374 28.8265C120.522 28.9197 120.698 28.9719 120.884 28.9719C120.915 28.9719 120.945 28.9681 120.972 28.9644C121.151 28.9495 121.315 28.8749 121.448 28.7668L121.452 28.7631C121.471 28.7482 121.486 28.7332 121.502 28.7146C121.505 28.7109 121.513 28.7071 121.517 28.7034C121.532 28.6885 121.543 28.6736 121.555 28.6624C121.7 28.4909 121.78 28.2783 121.768 28.0583V15.0527H123.811V15.0489H123.818C124.359 15.0228 124.756 14.6089 124.74 14.0944C124.74 14.0907 124.74 14.0907 124.74 14.0869C124.744 14.0683 124.74 14.0496 124.74 14.031C124.74 14.0235 124.74 14.0161 124.74 14.0124C124.725 13.8147 124.638 13.6358 124.5 13.4978C124.5 13.4978 124.5 13.4978 124.5 13.4941C124.497 13.4941 124.497 13.4941 124.497 13.4941C124.478 13.4754 124.462 13.4605 124.443 13.4456C124.436 13.4381 124.428 13.4344 124.424 13.4269C124.409 13.4158 124.398 13.4083 124.382 13.3971C124.371 13.3897 124.356 13.3785 124.344 13.371C124.337 13.3673 124.325 13.3598 124.317 13.3561C124.298 13.3449 124.279 13.3337 124.26 13.3263C124.257 13.3225 124.249 13.3188 124.245 13.3188C124.222 13.3076 124.199 13.2964 124.177 13.289C124.173 13.2853 124.169 13.2853 124.161 13.2815C124.138 13.2741 124.116 13.2666 124.093 13.2592C124.085 13.2592 124.077 13.2554 124.07 13.2554C124.047 13.2517 124.028 13.2442 124.005 13.2405C123.994 13.2405 123.982 13.2405 123.971 13.2368C123.955 13.2331 123.936 13.2331 123.917 13.2293C123.902 13.2293 123.887 13.2293 123.875 13.2293C123.864 13.2293 123.853 13.2256 123.841 13.2256C123.83 13.2256 123.815 13.2256 123.811 13.2256H121.768V11.7565C121.768 11.7453 121.768 11.7341 121.768 11.7267C121.772 11.6521 121.772 11.5775 121.776 11.5067C121.776 11.488 121.776 11.4657 121.78 11.447C121.78 11.3836 121.784 11.3202 121.787 11.2606C121.787 11.2494 121.791 11.2345 121.791 11.2233C121.795 11.1524 121.803 11.0816 121.81 11.0145C121.883 10.2874 122.043 9.82876 122.21 9.54911C122.214 9.54165 122.214 9.53792 122.218 9.53046C122.229 9.51182 122.245 9.49318 122.256 9.47453C122.264 9.45962 122.275 9.4447 122.286 9.42979C122.29 9.42233 122.298 9.40742 122.306 9.39996C122.325 9.37386 122.344 9.35149 122.367 9.32911C122.607 9.06438 122.98 8.90404 123.521 8.84065C123.529 8.84065 123.533 8.83693 123.544 8.83693C123.574 8.8332 123.609 8.82947 123.639 8.82947C123.654 8.82574 123.674 8.82574 123.689 8.82201C123.719 8.82201 123.746 8.81828 123.776 8.81828C123.799 8.81828 123.818 8.81455 123.845 8.81455C123.872 8.81083 123.898 8.81083 123.925 8.81083C123.952 8.81083 123.978 8.8071 124.005 8.8071C124.032 8.8071 124.058 8.8071 124.085 8.8071C124.123 8.8071 124.161 8.8071 124.199 8.8071H124.203C124.234 8.8071 124.26 8.80337 124.291 8.79964C124.325 8.80337 124.359 8.8071 124.394 8.8071H124.641C125.152 8.8071 125.571 8.39694 125.571 7.89357C125.571 7.39019 125.152 6.98376 124.641 6.98376Z"></path>
<path fill="#46413C" d="M129.557 7.00988C129.557 7.00988 129.553 7.00615 129.549 7.00615C129.53 6.99869 129.515 6.99123 129.492 6.9875C129.485 6.98378 129.473 6.98005 129.462 6.97632C129.446 6.97259 129.431 6.96886 129.416 6.96513C129.401 6.9614 129.385 6.95395 129.374 6.95395C129.355 6.95022 129.34 6.94649 129.321 6.94649C129.305 6.94276 129.294 6.94276 129.279 6.93903C129.248 6.9353 129.214 6.9353 129.184 6.9353C128.688 6.9353 128.269 7.34173 128.269 7.82646V28.0285C128.269 28.517 128.688 28.9234 129.184 28.9234C129.214 28.9234 129.248 28.9234 129.279 28.9197C129.283 28.9197 129.29 28.9159 129.294 28.9159C129.321 28.9122 129.347 28.9085 129.374 28.9048C129.378 28.9048 129.385 28.901 129.393 28.901C129.416 28.8936 129.439 28.8898 129.462 28.8824C129.466 28.8824 129.469 28.8824 129.473 28.8787C129.824 28.7705 130.083 28.4797 130.121 28.1217C130.125 28.0919 130.129 28.0621 130.129 28.0285V7.82646C130.129 7.79663 130.125 7.7668 130.121 7.73697C130.087 7.40885 129.866 7.13665 129.557 7.00988Z"></path>
<path fill="#46413C" d="M59.5921 24.1693C59.5845 24.1171 59.5845 24.0687 59.5768 24.0202C59.573 23.9829 59.5692 23.9493 59.5654 23.9158C59.5578 23.8748 59.554 23.8375 59.5464 23.7965C59.5387 23.7592 59.5311 23.7219 59.5235 23.6809C59.5197 23.6511 59.5121 23.6175 59.5044 23.5877C59.493 23.5429 59.4854 23.5019 59.474 23.4572C59.4663 23.4348 59.4587 23.4087 59.4511 23.3863C59.4397 23.3378 59.4244 23.2931 59.4054 23.2484C59.4016 23.2297 59.3939 23.2111 59.3901 23.1962C59.3711 23.144 59.352 23.0955 59.3292 23.0433C59.3253 23.0358 59.3215 23.0246 59.3177 23.0134C59.291 22.9612 59.2682 22.9053 59.2415 22.8531C59.2377 22.8494 59.2377 22.8457 59.2339 22.8419C59.0167 22.4131 58.708 22.0552 58.3308 21.7531C58.3308 21.7494 58.3308 21.7494 58.327 21.7494C58.2736 21.7084 58.2203 21.6637 58.1631 21.6226C58.1631 21.6226 58.1593 21.6189 58.1555 21.6152C58.1517 21.6152 58.1479 21.6115 58.1441 21.6077C58.1098 21.5854 58.0755 21.5593 58.045 21.5369C57.5763 21.2125 57.0581 20.9552 56.3036 20.6718C56.2922 20.6681 56.2807 20.6644 56.2693 20.6606C56.2579 20.6532 56.2426 20.6495 56.2312 20.642C55.8044 20.4854 55.3624 20.3362 54.909 20.1908C54.909 20.1908 54.909 20.1908 54.9051 20.1908C54.9051 20.1908 54.9013 20.1908 54.9013 20.1871C54.8937 20.1871 54.8861 20.1834 54.8747 20.1796C54.8327 20.1647 54.787 20.1498 54.7261 20.1312C54.6956 20.1237 54.6727 20.1163 54.6498 20.1088C54.4974 20.0566 54.3412 20.0081 54.185 19.9559C54.0745 19.9186 53.9563 19.8813 53.8153 19.8366C53.7772 19.8254 53.6858 19.7956 53.6096 19.7732C53.6058 19.7732 53.6058 19.7695 53.6019 19.7695C53.5562 19.7546 53.5105 19.7397 53.461 19.7247C53.0799 19.6054 52.7674 19.501 52.5007 19.4041C52.0663 19.2475 51.67 19.0797 51.3461 18.8783C51.3385 18.8746 51.3309 18.8709 51.3271 18.8671C50.8851 18.5912 50.5802 18.2519 50.5078 17.8082L50.504 17.8045C50.5002 17.7746 50.4964 17.7411 50.4964 17.7112C50.4926 17.7038 50.4926 17.7001 50.4926 17.6963C50.4888 17.659 50.4888 17.6255 50.4888 17.5882C50.4888 17.536 50.4926 17.4838 50.4964 17.4353C50.4964 17.4204 50.4964 17.4092 50.5002 17.398C50.504 17.357 50.5078 17.3197 50.5116 17.2824C50.5154 17.2713 50.5154 17.2601 50.5192 17.2489C50.5269 17.2079 50.5345 17.1706 50.5421 17.1296C50.5459 17.1258 50.5459 17.1184 50.5497 17.1109C50.5612 17.0662 50.5726 17.0252 50.5878 16.9842C50.5878 16.9804 50.5878 16.9804 50.5878 16.9804C50.786 16.4025 51.2547 15.9737 51.8072 15.6717C51.8453 15.653 51.8834 15.6344 51.9177 15.6157C51.9558 15.5971 51.9901 15.5784 52.0244 15.5635C52.0816 15.5374 52.1387 15.5113 52.1959 15.4889C52.2302 15.474 52.2606 15.4591 52.2949 15.4479C52.3559 15.4256 52.4169 15.4032 52.4778 15.3808C52.5083 15.3696 52.5426 15.3584 52.5769 15.3473C52.6379 15.3286 52.6951 15.31 52.756 15.2951C52.7941 15.2839 52.8284 15.2727 52.8665 15.2652C52.9237 15.2503 52.9808 15.2391 53.0342 15.2242C53.0723 15.2168 53.1104 15.2093 53.1485 15.2018C53.2095 15.1907 53.2666 15.1795 53.32 15.172C53.3543 15.1683 53.3847 15.1646 53.419 15.1571C53.4838 15.1496 53.5524 15.1422 53.621 15.1384C53.6362 15.1347 53.6515 15.1347 53.6705 15.131C53.7544 15.1273 53.8382 15.1235 53.9182 15.1235C54.0135 15.1235 54.1087 15.1273 54.2002 15.131C54.2154 15.131 54.2307 15.131 54.2421 15.131C54.9166 15.172 55.4615 15.3323 55.9111 15.5449C55.9454 15.5598 55.9797 15.5784 56.014 15.5934C56.0331 15.6045 56.0521 15.6157 56.0712 15.6232C56.1131 15.6456 56.155 15.6679 56.2007 15.694C56.2083 15.6978 56.216 15.7015 56.2236 15.7052C56.2693 15.7313 56.315 15.7611 56.3608 15.7872C56.3646 15.791 56.3684 15.791 56.3684 15.791C56.4179 15.8208 56.4675 15.8544 56.517 15.8842C56.517 15.8879 56.5208 15.8879 56.5208 15.8916C56.5703 15.9215 56.6161 15.9513 56.6618 15.9849C56.6808 15.9998 56.6961 16.011 56.7151 16.0221C56.8218 16.1005 56.9895 16.2272 57.1419 16.3503C57.161 16.3615 57.1762 16.3726 57.1876 16.3838C57.302 16.4771 57.4087 16.5591 57.5115 16.6337C57.5306 16.6486 57.5458 16.6598 57.5573 16.6672C57.5611 16.6709 57.5649 16.6747 57.5687 16.6747C57.5801 16.6821 57.5916 16.6896 57.603 16.697C57.6297 16.7157 57.6601 16.7343 57.6868 16.753C57.6983 16.7604 57.7097 16.7642 57.7211 16.7716C57.7478 16.7865 57.7745 16.8014 57.8011 16.8164C57.8126 16.8201 57.8202 16.8238 57.8316 16.8275C57.8621 16.8425 57.8888 16.8536 57.9193 16.8648C57.9269 16.8686 57.9307 16.8686 57.9383 16.8723C57.9726 16.8835 58.0069 16.8947 58.0412 16.8984C58.0412 16.8984 58.0412 16.8984 58.045 16.9021C58.1212 16.9133 58.1936 16.917 58.2698 16.8984C58.2775 16.8984 58.2851 16.8947 58.2927 16.8947C58.3118 16.8909 58.3346 16.8835 58.3537 16.8797C58.3613 16.876 58.3651 16.8723 58.3727 16.8686C58.3803 16.8686 58.388 16.8648 58.3956 16.8611C58.4261 16.8462 58.4566 16.8313 58.487 16.8126C58.4947 16.8126 58.4985 16.8089 58.5023 16.8052C58.5366 16.7828 58.5671 16.7604 58.5975 16.7343C58.6013 16.7306 58.6013 16.7306 58.6013 16.7306C58.628 16.7082 58.6509 16.6821 58.6737 16.656C58.689 16.6374 58.7042 16.615 58.7157 16.5926C58.7195 16.5889 58.7233 16.5852 58.7233 16.5815C58.8833 16.3204 58.7919 15.9774 58.5099 15.6045C58.5061 15.5971 58.5023 15.5896 58.4947 15.5822C58.4832 15.5672 58.4756 15.5561 58.4642 15.5411C57.8164 14.7208 56.3417 13.8222 54.9737 13.5351C54.9661 13.5351 54.9585 13.5351 54.9509 13.5314C54.8937 13.5202 54.8327 13.509 54.7756 13.4978C54.7603 13.4978 54.7413 13.4941 54.7261 13.4904C54.6765 13.4829 54.627 13.4755 54.5774 13.4717C54.5584 13.468 54.5393 13.4643 54.5203 13.4643C54.4746 13.4605 54.425 13.4568 54.3793 13.4531C54.3602 13.4494 54.3412 13.4494 54.3259 13.4456C54.2612 13.4456 54.2002 13.4419 54.1392 13.4419C54.0402 13.4419 53.9411 13.4419 53.8458 13.4456C53.7925 13.4456 53.7391 13.4494 53.682 13.4531C53.6439 13.4568 53.5981 13.4568 53.56 13.4568C53.4838 13.4643 53.4114 13.468 53.339 13.4755C53.32 13.4755 53.2971 13.4755 53.2781 13.4792C53.1942 13.4866 53.1104 13.4941 53.0304 13.5053C53.0189 13.5053 53.0113 13.5053 53.0037 13.5053C52.9161 13.5165 52.8322 13.5277 52.7484 13.5426C52.7446 13.5426 52.737 13.5426 52.7332 13.5426C52.6493 13.5538 52.5655 13.5687 52.4855 13.5836C52.4817 13.5836 52.4779 13.5873 52.4702 13.5873C52.2988 13.6171 52.1311 13.6544 51.971 13.6954C51.9672 13.6954 51.9672 13.6992 51.9672 13.6992C51.8872 13.7178 51.8072 13.7402 51.7272 13.7626C51.651 13.7849 51.5786 13.811 51.51 13.8334C51.5024 13.8334 51.4985 13.8371 51.4909 13.8371C51.4223 13.8632 51.3537 13.8856 51.2852 13.9117C51.2775 13.9154 51.2699 13.9192 51.2661 13.9192C51.1975 13.9453 51.1365 13.9714 51.0718 14.0012C51.0641 14.0049 51.0527 14.0049 51.0451 14.0124C50.9879 14.0348 50.927 14.0646 50.8736 14.0907C50.8584 14.0981 50.8469 14.1019 50.8355 14.1093C50.7784 14.1354 50.725 14.1615 50.6717 14.1914C50.6564 14.1988 50.645 14.2063 50.6297 14.2137C50.5802 14.2398 50.5307 14.2697 50.4811 14.2995C50.4659 14.307 50.4507 14.3144 50.4354 14.3256C50.3706 14.3629 50.3097 14.4039 50.2487 14.4412C50.1763 14.4934 50.1039 14.5419 50.0391 14.5941C50.0315 14.5941 50.0277 14.5978 50.0277 14.6015C49.7038 14.8364 49.4256 15.0862 49.197 15.3771C49.1894 15.3883 49.1779 15.3995 49.1703 15.4106C49.1436 15.4517 49.1132 15.4889 49.0865 15.5262C49.0674 15.5561 49.0484 15.5859 49.0293 15.6157C49.0141 15.6381 48.9988 15.6605 48.9874 15.6828C48.9569 15.7313 48.9303 15.7798 48.9036 15.832C48.8998 15.8394 48.896 15.8432 48.8922 15.8506C48.6864 16.2496 48.5683 16.7082 48.5225 17.2638C48.5225 17.2713 48.5225 17.2787 48.5187 17.2862C48.5149 17.3831 48.5073 17.4801 48.5035 17.5845C48.5035 17.6628 48.5035 17.7411 48.5073 17.8194C48.5073 17.8306 48.5073 17.8418 48.5073 17.8529C48.5492 18.9193 49.0446 19.721 49.94 20.3437C49.9477 20.3474 49.9553 20.3549 49.9629 20.3586C50.001 20.3847 50.0391 20.4108 50.0772 20.4369C50.1039 20.4556 50.1344 20.4705 50.1611 20.4891C50.1687 20.4966 50.1801 20.5003 50.1877 20.504C51.0718 21.0522 52.154 21.3654 53.057 21.6152C53.4991 21.742 53.8954 21.8501 54.0135 21.8837C54.0402 21.8911 54.0668 21.8986 54.0897 21.9098C54.6308 22.085 55.0461 22.2267 55.3891 22.3609C55.4158 22.3684 55.4386 22.3796 55.4653 22.387C55.4729 22.3908 55.4843 22.3945 55.4958 22.4019C55.6901 22.4802 55.8806 22.5623 56.0635 22.6518C56.216 22.7263 56.357 22.8046 56.4979 22.8867C56.8599 23.1067 57.1381 23.3453 57.3248 23.6063C57.3324 23.6138 57.3363 23.6212 57.3401 23.6287C57.3591 23.6511 57.3744 23.6734 57.3858 23.6995C57.3972 23.7144 57.4048 23.7256 57.4125 23.7405C57.4239 23.7592 57.4353 23.7778 57.4429 23.7965C57.4544 23.8151 57.462 23.8375 57.4734 23.8561C57.4811 23.871 57.4887 23.886 57.4963 23.9009C57.5039 23.9232 57.5153 23.9456 57.523 23.9717C57.5268 23.9829 57.5344 23.9978 57.5382 24.0127C57.5458 24.0388 57.5535 24.0649 57.5611 24.091C57.5649 24.1022 57.5687 24.1134 57.5725 24.1283C57.5801 24.1544 57.5878 24.1843 57.5916 24.2104C57.5954 24.2215 57.5992 24.2365 57.5992 24.2476C57.603 24.2775 57.6068 24.3073 57.6106 24.3371C57.6144 24.3483 57.6144 24.3595 57.6144 24.3707C57.6182 24.4154 57.622 24.4564 57.622 24.5012C57.622 24.5683 57.6182 24.6317 57.6144 24.6951C57.6144 24.7137 57.6106 24.7324 57.6106 24.751C57.6068 24.7995 57.5992 24.848 57.5877 24.8964C57.5877 24.9114 57.5839 24.9263 57.5801 24.9412C57.5573 25.0717 57.5192 25.1947 57.4696 25.3178C57.4658 25.3215 57.4658 25.3252 57.4658 25.329C57.4391 25.3849 57.4125 25.4446 57.382 25.4968C57.3782 25.5042 57.3782 25.5079 57.3744 25.5117C57.3096 25.631 57.2334 25.7466 57.1381 25.8547C57.0924 25.9106 57.0428 25.9628 56.9933 26.015C56.9895 26.015 56.9895 26.015 56.9895 26.0188C56.8866 26.1194 56.7723 26.2127 56.6542 26.2984C56.6504 26.3022 56.6466 26.3022 56.6466 26.3059C56.5894 26.3432 56.5322 26.3842 56.4751 26.4177C56.4675 26.4252 56.4598 26.4289 56.4522 26.4327C56.3531 26.4923 56.2464 26.552 56.1398 26.6042C56.1017 26.6228 56.0635 26.6415 56.0216 26.6601C55.9797 26.6788 55.934 26.7011 55.8883 26.7198C55.8502 26.7347 55.8159 26.7496 55.7778 26.7645C55.6749 26.8018 55.5758 26.8391 55.4729 26.8726C55.4577 26.8764 55.4424 26.8801 55.4272 26.8876C55.3662 26.9062 55.3053 26.9211 55.2443 26.9398C55.229 26.9435 55.21 26.9509 55.1947 26.9547C54.9928 27.0069 54.7946 27.0479 54.6079 27.0777C54.6041 27.0777 54.6003 27.0777 54.5965 27.0777C54.5012 27.0926 54.4098 27.1038 54.3221 27.115C54.2878 27.1187 54.2574 27.1225 54.2231 27.1225C54.1926 27.1262 54.1621 27.1262 54.1278 27.1299C54.0554 27.1336 53.9792 27.1374 53.9106 27.1374C53.7696 27.1374 53.6324 27.1336 53.4991 27.1262C53.4457 27.1262 53.3924 27.1225 53.339 27.1187C53.2666 27.1113 53.1904 27.1076 53.1218 27.1001C53.057 27.0964 52.9885 27.0889 52.9275 27.0814C52.8703 27.074 52.817 27.0665 52.7636 27.0591C52.6455 27.0404 52.535 27.0255 52.4245 27.0031C52.375 26.992 52.3216 26.9845 52.2721 26.9733C52.2149 26.9584 52.1578 26.9472 52.1006 26.9323C52.0358 26.9174 51.9749 26.9025 51.9139 26.8838C51.872 26.8726 51.8262 26.8615 51.7881 26.8503C51.6853 26.8204 51.5824 26.7869 51.4833 26.7496C51.4604 26.7421 51.4376 26.7347 51.4147 26.7272C51.1937 26.6452 50.9765 26.5557 50.7631 26.4513C50.7555 26.4476 50.7441 26.4401 50.7326 26.4364C50.5955 26.3693 50.363 26.2425 50.142 26.1194C50.1229 26.1083 50.1001 26.0971 50.081 26.0859C49.9248 25.9964 49.7914 25.9218 49.6657 25.8622C49.6543 25.8547 49.6466 25.851 49.639 25.8473C49.6314 25.8435 49.6238 25.8398 49.62 25.8398C49.5857 25.8249 49.559 25.81 49.5285 25.7988C49.5171 25.7951 49.5095 25.7913 49.5018 25.7876C49.4218 25.7578 49.3494 25.7354 49.277 25.7279C49.2542 25.7242 49.2313 25.7242 49.2084 25.7242C49.2008 25.7205 49.1932 25.7205 49.1856 25.7205C49.0408 25.7205 48.915 25.7689 48.7969 25.8771C48.7702 25.8995 48.7474 25.9218 48.7245 25.9479C48.7207 25.9554 48.7131 25.9628 48.7054 25.9703C48.6902 25.9889 48.6788 26.0039 48.6673 26.0188C48.6597 26.03 48.6521 26.0411 48.6483 26.0486C48.6368 26.0635 48.6254 26.0784 48.6178 26.0933C48.6102 26.1045 48.6064 26.1157 48.6026 26.1269C48.5949 26.1418 48.5873 26.1567 48.5797 26.1716C48.5759 26.1828 48.5721 26.1903 48.5683 26.2015C48.5606 26.2201 48.5568 26.235 48.553 26.25C48.5492 26.2611 48.5454 26.2686 48.5454 26.2798C48.5416 26.2984 48.5378 26.3171 48.534 26.3357C48.534 26.3432 48.5302 26.3506 48.5302 26.3581C48.5263 26.3842 48.5263 26.4066 48.5263 26.4289C48.5263 26.4327 48.5263 26.4364 48.5263 26.4401C48.5263 26.4699 48.5302 26.496 48.5378 26.5259C48.5378 26.5296 48.5378 26.5371 48.5378 26.5408C48.5454 26.5632 48.5492 26.5893 48.5568 26.6116C48.5606 26.6228 48.5645 26.634 48.5683 26.6452C48.5759 26.6638 48.5797 26.6862 48.5911 26.7049C48.5949 26.716 48.5987 26.7235 48.6026 26.731C48.6521 26.8428 48.7321 26.9584 48.835 27.0703C48.9455 27.1896 49.0865 27.3089 49.2503 27.4319C49.2542 27.4319 49.2542 27.4319 49.2542 27.4357C49.2999 27.4655 49.3456 27.4991 49.3951 27.5326C49.4066 27.5401 49.4142 27.5475 49.4256 27.5513C49.559 27.6408 49.7 27.7265 49.86 27.816C49.8981 27.8384 49.9362 27.8607 49.9743 27.8794C50.0124 27.9018 50.0505 27.9204 50.0887 27.939C50.1344 27.9651 50.1877 27.9913 50.2373 28.0174C50.2716 28.0323 50.302 28.0509 50.3363 28.0658C50.4126 28.1031 50.4926 28.1404 50.5726 28.1777C50.584 28.1851 50.5916 28.1889 50.6031 28.1926C50.6907 28.2336 50.7784 28.2709 50.866 28.3045C50.9041 28.3194 50.9384 28.3343 50.9765 28.3492C50.9841 28.3529 50.9917 28.3567 50.9994 28.3567C51.8148 28.6699 52.8208 28.8787 53.7086 28.916C53.7734 28.9197 53.842 28.9234 53.9068 28.9234H53.9106C53.9411 28.9234 53.9678 28.9234 53.9982 28.9197C54.0668 28.9197 54.1354 28.9197 54.204 28.9197C54.2116 28.9197 54.2193 28.9197 54.2269 28.916C55.6711 28.8712 56.8561 28.5058 57.8659 27.7824C57.8659 27.7787 57.8659 27.7787 57.8659 27.7787C58.9862 26.9509 59.6035 25.7839 59.6035 24.4975C59.6035 24.4154 59.5997 24.3334 59.5959 24.2551C59.5959 24.2253 59.5921 24.1954 59.5921 24.1693Z"></path>
<path fill="#46413C" d="M68.9088 13.4718C68.905 13.4718 68.9012 13.4718 68.8974 13.4718C67.1216 13.4718 65.445 14.1803 64.2333 15.4331V14.3667C64.2333 13.8745 63.8446 13.4718 63.353 13.4718C63.3187 13.4718 63.2883 13.4755 63.2578 13.4755C63.0406 13.4979 62.8501 13.5911 62.7091 13.7291C62.7053 13.7291 62.7052 13.7291 62.7014 13.7328C62.69 13.7477 62.6748 13.7626 62.6633 13.7776C62.6557 13.7813 62.6481 13.7887 62.6443 13.7962C62.6329 13.8074 62.6252 13.8186 62.6176 13.8298C62.61 13.8409 62.6024 13.8521 62.5909 13.8633C62.5871 13.8708 62.5833 13.8782 62.5795 13.8857C62.5681 13.9043 62.5566 13.923 62.5452 13.9379C62.5452 13.9416 62.5452 13.9453 62.5414 13.9491C62.53 13.9714 62.5185 13.9938 62.5071 14.0162C62.488 14.0721 62.469 14.1281 62.4576 14.184C62.4576 14.1877 62.4576 14.1914 62.4538 14.1914C62.4499 14.2213 62.4461 14.2474 62.4423 14.2735C62.4423 14.3033 62.4385 14.3331 62.4385 14.3667V28.2151L62.4271 28.2747L62.4728 28.312C62.4728 28.3306 62.4766 28.3567 62.488 28.3828C62.488 28.3866 62.4919 28.394 62.4919 28.3978C62.4995 28.4164 62.5109 28.4388 62.53 28.4574C62.6481 28.6774 62.8653 28.8452 63.1206 28.9198L63.1396 28.9235H63.353C63.3873 28.9235 63.4216 28.9235 63.4559 28.9198C63.4788 28.916 63.5016 28.9086 63.5245 28.9049C63.5359 28.9049 63.5436 28.9049 63.555 28.9011C63.5855 28.8937 63.616 28.8862 63.6464 28.875C63.6464 28.875 63.6464 28.875 63.6503 28.875C63.8103 28.8191 63.9475 28.7222 64.0389 28.5916C64.0427 28.5879 64.0466 28.5842 64.0504 28.5805C64.1113 28.5171 64.1456 28.45 64.1799 28.3567C64.1837 28.3456 64.1875 28.3381 64.1875 28.3306C64.1914 28.3269 64.1914 28.3269 64.1914 28.3232C64.2066 28.2784 64.218 28.2337 64.2295 28.189L64.2333 28.174V19.7919C64.2942 17.2937 66.3824 15.2616 68.8897 15.2578C68.8935 15.2578 68.8935 15.2578 68.8974 15.2578C71.4504 15.2578 73.5271 17.29 73.5271 19.7882V28.0286C73.5271 28.0622 73.5309 28.092 73.5348 28.1218C73.5538 28.3381 73.6491 28.5245 73.7901 28.6625C73.7901 28.6625 73.7939 28.6625 73.7939 28.6662C73.8091 28.6811 73.8244 28.6923 73.8396 28.7072C73.8472 28.7147 73.851 28.7184 73.8587 28.7222C73.8701 28.7333 73.8815 28.7408 73.8929 28.7483C73.9044 28.7594 73.9158 28.7669 73.9272 28.7744C73.9387 28.7781 73.9463 28.7818 73.9539 28.7893C73.9692 28.8005 73.9882 28.8079 74.0035 28.8191C74.0073 28.8191 74.0111 28.8228 74.0187 28.8228C74.0377 28.834 74.0606 28.8452 74.0835 28.8564H74.0873C74.1406 28.8788 74.1978 28.8937 74.2549 28.9049C74.2626 28.9049 74.2664 28.9086 74.2702 28.9086C74.2969 28.9123 74.3197 28.916 74.3464 28.9198C74.3769 28.9235 74.4074 28.9235 74.4417 28.9235C74.4721 28.9235 74.5026 28.9235 74.5331 28.9198C74.5598 28.916 74.5865 28.9123 74.6093 28.9086C74.6131 28.9086 74.6208 28.9049 74.6246 28.9049C74.6855 28.8937 74.7389 28.8788 74.796 28.8564C74.8189 28.8452 74.8418 28.834 74.8646 28.8228C74.8684 28.8228 74.8723 28.8191 74.8761 28.8191C74.8951 28.8079 74.9104 28.8005 74.9294 28.7893C74.937 28.7818 74.9447 28.7781 74.9523 28.7744C74.9637 28.7669 74.9751 28.7594 74.9866 28.7483C74.998 28.7408 75.0132 28.7333 75.0247 28.7222C75.0285 28.7184 75.0361 28.7147 75.0399 28.7072C75.0552 28.6923 75.0742 28.6811 75.0895 28.6662C75.0895 28.6625 75.0895 28.6625 75.0895 28.6625C75.2343 28.5245 75.3295 28.3381 75.3486 28.1218C75.3524 28.092 75.3524 28.0622 75.3524 28.0286V19.7882C75.3524 16.3093 72.464 13.4793 68.9088 13.4718Z"></path>
<path fill="#46413C" d="M85.3474 13.4419C89.4856 13.4419 92.8503 16.9133 92.8503 21.1827C92.8503 25.452 89.4856 28.9234 85.3474 28.9234C85.2178 28.9234 85.0921 28.9197 84.9663 28.9122C84.9473 28.9122 84.932 28.9122 84.913 28.9085C84.8025 28.9048 84.6919 28.8936 84.5853 28.8824C84.5814 28.8824 84.5776 28.8824 84.5738 28.8824C82.9391 28.7072 81.4111 27.9763 80.1955 26.7794C80.146 26.731 80.0927 26.6825 80.0469 26.6303C80.0431 26.6303 80.0431 26.6265 80.0393 26.6265C80.0126 26.6004 79.9898 26.5706 79.9631 26.5408C79.9059 26.4811 79.8488 26.4177 79.7916 26.3544C79.7459 26.3059 79.704 26.25 79.6583 26.1977C79.6278 26.1567 79.5935 26.1157 79.5592 26.0747C79.4906 25.9927 79.4258 25.9069 79.3648 25.8212C79.3572 25.81 79.3496 25.7988 79.342 25.7876C78.5989 24.7697 78.115 23.5951 77.9321 22.3497C77.913 22.2341 77.9016 22.1186 77.8902 22.003C77.8864 21.9918 77.8864 21.9769 77.8826 21.962C77.8711 21.8538 77.8635 21.7494 77.8597 21.6413C77.8559 21.6189 77.8559 21.5965 77.8559 21.5704C77.8483 21.4437 77.8445 21.3132 77.8445 21.1827C77.8445 21.0522 77.8483 20.9217 77.8559 20.7949C77.8559 20.7688 77.8559 20.7464 77.8597 20.724C77.8635 20.6159 77.8711 20.5078 77.8826 20.4034C77.8864 20.3884 77.8864 20.3735 77.8902 20.3623C77.9016 20.2468 77.913 20.1312 77.9321 20.0156C78.115 18.7702 78.5989 17.5957 79.342 16.5777C79.3458 16.5665 79.3534 16.5554 79.361 16.5479C79.4258 16.4584 79.4906 16.3726 79.5592 16.2869C79.5897 16.2496 79.624 16.2123 79.6544 16.1713C79.7002 16.1154 79.7459 16.0632 79.7916 16.0072C79.845 15.9476 79.8983 15.8916 79.9555 15.832C79.9822 15.8022 80.0126 15.7686 80.0393 15.7388C80.0431 15.7388 80.0431 15.735 80.0469 15.735C80.0888 15.6866 80.1384 15.6418 80.1841 15.5971C81.3997 14.3964 82.9315 13.6582 84.5738 13.4829C84.5776 13.4829 84.5814 13.4829 84.5853 13.4829C84.6919 13.4717 84.8025 13.4643 84.913 13.4568C84.932 13.4568 84.9473 13.4531 84.9663 13.4531C85.0921 13.4456 85.2178 13.4419 85.3474 13.4419ZM90.9945 20.5749C90.9945 20.5712 90.9945 20.5712 90.9945 20.5674C90.8612 19.2251 90.2972 18.0133 89.4551 17.0774C89.417 17.0364 89.3827 16.9953 89.3446 16.9543C89.3217 16.9319 89.2989 16.9096 89.276 16.8872C89.2303 16.8425 89.1884 16.7977 89.1426 16.753C89.1007 16.712 89.055 16.6747 89.0131 16.6374C88.9864 16.615 88.9635 16.5889 88.9369 16.5665C88.8683 16.5069 88.7997 16.4509 88.7311 16.395C88.7311 16.395 88.7273 16.395 88.7273 16.3913C87.9309 15.7611 86.9744 15.3473 85.9456 15.2317C85.9342 15.2317 85.9266 15.2279 85.9189 15.2279C85.8389 15.2168 85.7627 15.213 85.6827 15.2093C85.6636 15.2056 85.6484 15.2056 85.6331 15.2056C85.5379 15.1981 85.4426 15.1981 85.3474 15.1981C85.2521 15.1981 85.1568 15.1981 85.0616 15.2056C85.0463 15.2056 85.0311 15.2056 85.012 15.2093C84.932 15.213 84.8558 15.2168 84.7758 15.2279C84.7682 15.2279 84.7605 15.2317 84.7491 15.2317C83.7203 15.3473 82.7638 15.7611 81.9674 16.3913C81.9674 16.395 81.9636 16.395 81.9636 16.395C81.895 16.4509 81.8264 16.5069 81.7579 16.5665C81.7312 16.5889 81.7083 16.6113 81.6816 16.6337C81.6397 16.6747 81.594 16.712 81.5521 16.753C81.5102 16.794 81.4683 16.8387 81.4225 16.8835C81.3997 16.9058 81.3768 16.9282 81.3501 16.9543C81.3158 16.9916 81.2815 17.0326 81.2434 17.0736C80.4013 18.0095 79.8335 19.2251 79.7002 20.5674C79.7002 20.5712 79.7002 20.5712 79.7002 20.5749C79.6926 20.6606 79.6849 20.7464 79.6811 20.8359C79.6811 20.8508 79.6773 20.8657 79.6773 20.8806C79.6735 20.9813 79.6697 21.082 79.6697 21.1827C79.6697 24.4602 82.2456 27.1374 85.3474 27.1374C88.4491 27.1374 91.025 24.4602 91.025 21.1827C91.025 21.082 91.0212 20.9813 91.0174 20.8806C91.0174 20.8657 91.0136 20.8508 91.0136 20.8359C91.0098 20.7464 91.0022 20.6606 90.9945 20.5749Z"></path>
<path fill="#46413C" d="M114.902 13.8259C114.894 13.8185 114.89 13.811 114.883 13.8035C114.791 13.6917 114.669 13.6022 114.532 13.5463C114.532 13.5463 114.532 13.5463 114.528 13.5463C114.513 13.5351 114.494 13.5313 114.479 13.5239C114.471 13.5239 114.463 13.5202 114.452 13.5164C114.33 13.4754 114.197 13.468 114.067 13.4866H114.063C113.8 13.5276 113.549 13.6842 113.408 13.9154C113.408 13.9154 113.408 13.9154 113.404 13.9154C113.385 13.9527 113.362 13.99 113.347 14.0273L113.343 14.031V14.0347L108.976 25.7316L105.547 17.7448C105.513 17.6702 105.467 17.6031 105.413 17.5397C105.227 17.3272 104.941 17.1929 104.648 17.1929C104.602 17.1929 104.56 17.1929 104.514 17.2041C104.51 17.2041 104.507 17.2041 104.499 17.2041C104.194 17.2563 103.908 17.4651 103.779 17.7448C103.779 17.7485 103.779 17.7485 103.779 17.7485L100.349 25.7354L98.6879 21.3169L95.952 14.0347C95.9367 13.9937 95.9215 13.9601 95.9024 13.9229C95.8986 13.9191 95.8986 13.9191 95.8948 13.9154C95.811 13.7625 95.6776 13.6432 95.5176 13.5686C95.5176 13.5686 95.5137 13.5686 95.5137 13.5649C95.4337 13.5313 95.3499 13.5052 95.2623 13.4903C95.2546 13.4903 95.2508 13.4903 95.2432 13.4866C95.2013 13.4829 95.1556 13.4791 95.1136 13.4791H95.1098C95.0984 13.4791 95.0908 13.4791 95.0832 13.4791C95.0641 13.4791 95.0451 13.4791 95.026 13.4829C95.0146 13.4829 94.9993 13.4866 94.9879 13.4866C94.9688 13.4903 94.9536 13.4903 94.9384 13.4941C94.9269 13.4978 94.9155 13.4978 94.9041 13.5015C94.885 13.5052 94.866 13.509 94.8469 13.5164C94.8393 13.5202 94.8317 13.5202 94.824 13.5239C94.805 13.5313 94.7859 13.5351 94.7669 13.5463C94.7669 13.5463 94.7669 13.5463 94.7631 13.5463C94.6068 13.6134 94.4811 13.729 94.3896 13.8632C94.3858 13.8707 94.382 13.8744 94.3782 13.8818C94.3744 13.8893 94.3706 13.8968 94.3668 13.9042C94.2982 14.0161 94.2563 14.1466 94.241 14.2771C94.2258 14.415 94.2448 14.5605 94.302 14.6947L97.4685 23.0209L99.4995 28.3604C99.4995 28.3604 99.4995 28.3604 99.4995 28.3641C99.5834 28.5654 99.7053 28.7034 99.873 28.778C99.8768 28.7817 99.8844 28.7854 99.8882 28.7892C99.892 28.7929 99.8958 28.7966 99.9035 28.8003C99.9035 28.8041 99.9073 28.8041 99.9111 28.8078C99.9187 28.8115 99.9225 28.8153 99.9301 28.8227C99.9339 28.8227 99.9339 28.8227 99.9378 28.8227C99.9682 28.8414 100.006 28.8563 100.056 28.86C100.06 28.86 100.064 28.8637 100.067 28.8637C100.083 28.8675 100.098 28.8749 100.113 28.8786C100.121 28.8786 100.128 28.8824 100.136 28.8824C100.231 28.9122 100.292 28.9234 100.368 28.9234C100.41 28.9234 100.448 28.9197 100.49 28.9122C100.521 28.9085 100.555 28.901 100.586 28.8898C100.593 28.8861 100.601 28.8861 100.608 28.8824C100.639 28.8749 100.669 28.8637 100.7 28.8488C100.711 28.8451 100.723 28.8414 100.734 28.8339C100.753 28.8227 100.776 28.8115 100.799 28.8003C100.814 28.7892 100.833 28.778 100.852 28.7668C100.864 28.7593 100.875 28.7481 100.887 28.7407C100.913 28.722 100.936 28.7034 100.963 28.681C100.967 28.6773 100.97 28.6736 100.974 28.6661C101.001 28.64 101.028 28.6139 101.054 28.5841C101.054 28.5804 101.058 28.5766 101.062 28.5729C101.085 28.5431 101.108 28.5095 101.127 28.4759C101.146 28.4387 101.165 28.3976 101.18 28.3566L101.184 28.3454L101.195 28.3305L101.207 28.3044L104.648 20.2654L108.119 28.3343C108.146 28.4163 108.188 28.4909 108.245 28.5617C108.252 28.5729 108.26 28.5804 108.268 28.5915C108.287 28.6139 108.306 28.6363 108.329 28.6587C108.34 28.6661 108.351 28.6773 108.363 28.6848C108.382 28.7034 108.405 28.722 108.428 28.7407C108.439 28.7481 108.447 28.7556 108.458 28.7593C108.485 28.778 108.511 28.7966 108.538 28.8115C108.546 28.8153 108.553 28.819 108.561 28.8227C108.591 28.8376 108.618 28.8525 108.652 28.8637C108.66 28.8675 108.668 28.8712 108.679 28.8712C108.706 28.8824 108.732 28.8936 108.763 28.901C108.801 28.9085 108.839 28.9159 108.873 28.9234H108.988C109.033 28.9234 109.075 28.9197 109.117 28.9122C109.129 28.9122 109.136 28.9122 109.148 28.9085C109.186 28.901 109.22 28.8936 109.254 28.8824C109.266 28.8786 109.274 28.8749 109.281 28.8712C109.319 28.86 109.357 28.8414 109.392 28.8227C109.395 28.8227 109.399 28.819 109.403 28.819C109.445 28.7929 109.487 28.7668 109.521 28.7407C109.674 28.6288 109.784 28.4834 109.86 28.3044V28.3007L112.006 22.648L115.024 14.6947C115.142 14.415 115.096 14.1093 114.932 13.8707C114.925 13.8557 114.913 13.8408 114.902 13.8259Z"></path>
<path fill="#46413C" d="M163.36 14.0757C163.36 14.0608 163.356 14.0422 163.352 14.0273C163.352 14.0161 163.349 14.0049 163.345 13.9937C163.341 13.9751 163.337 13.9564 163.333 13.9415C163.33 13.9303 163.326 13.9191 163.322 13.9117C163.318 13.8893 163.311 13.8707 163.299 13.852C163.299 13.8446 163.295 13.8408 163.291 13.8334C163.28 13.8073 163.269 13.7849 163.253 13.7625C163.253 13.7588 163.253 13.7588 163.253 13.7588C163.208 13.6805 163.15 13.6134 163.086 13.5537C163.082 13.55 163.082 13.55 163.082 13.55C163.078 13.5463 163.078 13.5463 163.078 13.5463C162.754 13.2293 162.297 13.1883 161.939 13.4344C161.927 13.4419 161.92 13.4493 161.908 13.4531C161.893 13.4642 161.878 13.4754 161.863 13.4866C161.84 13.509 161.817 13.5276 161.794 13.55C161.794 13.55 161.79 13.55 161.79 13.5537L152.862 22.0701V7.82646C152.862 7.79663 152.862 7.7668 152.858 7.73697C152.824 7.40885 152.599 7.13665 152.294 7.00988C152.29 7.00988 152.29 7.00615 152.287 7.00615C152.268 6.99869 152.249 6.99123 152.23 6.9875C152.222 6.98378 152.21 6.98005 152.199 6.97632C152.184 6.97259 152.169 6.96886 152.15 6.96513C152.138 6.9614 152.123 6.95767 152.108 6.95395C152.092 6.95022 152.073 6.94649 152.058 6.94649C152.043 6.94276 152.031 6.94276 152.016 6.93903C151.982 6.9353 151.951 6.9353 151.921 6.9353C151.422 6.9353 151.006 7.34173 151.006 7.82646V28.0285C151.006 28.517 151.422 28.9234 151.921 28.9234C151.951 28.9234 151.986 28.9234 152.016 28.9197C152.02 28.9197 152.024 28.9159 152.031 28.9159C152.058 28.9122 152.085 28.9122 152.108 28.9048C152.115 28.9048 152.123 28.901 152.13 28.901C152.153 28.8936 152.176 28.8898 152.199 28.8824C152.203 28.8824 152.207 28.8787 152.21 28.8787C152.561 28.7705 152.82 28.476 152.858 28.1217C152.862 28.0919 152.862 28.0621 152.862 28.0285V24.6205L155.869 21.6823L161.71 28.5804C161.748 28.64 161.79 28.6922 161.843 28.7332C161.855 28.7444 161.863 28.7519 161.874 28.7593C161.889 28.7705 161.904 28.7817 161.92 28.7892C161.939 28.8041 161.958 28.8115 161.977 28.8227C161.984 28.8265 161.996 28.8339 162.003 28.8376C162.03 28.8488 162.053 28.8563 162.08 28.8675C162.087 28.8712 162.095 28.8712 162.099 28.8749C162.129 28.8824 162.156 28.8898 162.186 28.8973C162.19 28.8973 162.198 28.901 162.205 28.901C162.236 28.9085 162.263 28.9122 162.297 28.9159C162.305 28.9159 162.312 28.9159 162.32 28.9197C162.358 28.9197 162.396 28.9234 162.438 28.9234C162.499 28.9234 162.556 28.9197 162.609 28.9122C162.613 28.9122 162.613 28.9122 162.613 28.9122C162.72 28.8973 162.819 28.8637 162.91 28.819C162.914 28.819 162.914 28.8153 162.914 28.8153C162.956 28.7929 162.998 28.7668 163.04 28.737L163.051 28.7258C163.398 28.3865 163.451 27.9241 163.2 27.5401C163.177 27.5065 163.154 27.4729 163.128 27.4394L157.195 20.3884L163.086 14.8178C163.242 14.6612 163.337 14.471 163.36 14.2659C163.36 14.2622 163.36 14.2585 163.364 14.2547C163.364 14.2361 163.364 14.2137 163.364 14.1951C163.364 14.1839 163.368 14.1727 163.368 14.1652C163.368 14.1578 163.368 14.1541 163.368 14.1503C163.368 14.1354 163.364 14.1242 163.364 14.1093C163.364 14.0981 163.36 14.0869 163.36 14.0757Z"></path>
</g>
<defs>
<clipPath id="clip0_1887_63569">
<rect transform="translate(0.208984)" fill="white" height="42" width="179.491"></rect>
</clipPath>
</defs>
</svg>
