<svg xmlns="http://www.w3.org/2000/svg" fill="none" viewBox="0 0 135 28" height="28" width="135">
<path fill="#46413C" d="M0.329346 0.540771H16.4597V5.88136H0.329346V0.540771ZM0.329346 27.2909V11.2436H16.4597V16.5842H5.69766V27.2909H0.329346Z" clip-rule="evenodd" fill-rule="evenodd"></path>
<path fill="#46413C" d="M29.9083 0.538452H24.5195V27.2924H29.9083V0.538452Z"></path>
<path fill="#46413C" d="M49.6288 11.2153V16.5559H52.9646V17.6749C52.9646 20.396 50.7322 22.6086 47.9865 22.6086C45.2409 22.6086 43.0084 20.396 43.0084 17.6749V10.2997C43.0084 7.57853 45.2409 5.36602 47.9865 5.36602C48.9873 5.36602 49.9368 5.64578 50.7836 6.20532C51.0145 6.35786 51.2454 6.53593 51.4507 6.73933L51.6304 6.89197L55.3767 3.02638L55.1972 2.87374C54.8379 2.5177 54.4273 2.18709 54.0168 1.90732C53.9398 1.85647 53.8884 1.80562 53.8115 1.7802H53.7858C53.7345 1.72935 53.6575 1.70393 53.6062 1.65308C51.9125 0.559535 49.988 0 47.9865 0C42.2642 0 37.594 4.60309 37.594 10.2997V17.7003C37.594 23.3715 42.2385 28 47.9865 28C53.7089 28 58.379 23.3969 58.379 17.7003V11.2153H49.6288Z"></path>
<path fill="#46413C" d="M78.7882 0.538452V17.6792V17.9081C78.7882 20.4767 76.6842 22.5621 74.0917 22.5621C71.5004 22.5621 69.3963 20.4767 69.3963 17.9081V17.6792V0.538452H64.0076V17.6792V17.9081C64.0076 23.4267 68.5238 27.9026 74.0917 27.9026C79.5839 27.9026 84.0482 23.5539 84.1763 18.137V17.9081V17.6792V0.538452H78.7882Z"></path>
<path fill="#46413C" d="M105.407 27.2668H111.334L106.459 17.0435C109.178 15.5175 111 12.6438 111 9.36317C111 4.50573 106.997 0.538452 102.096 0.538452H101.865H97.2718H94.9877H91.8577V27.2924H97.2458V18.1625H101.018L105.407 27.2668ZM97.2718 5.87905H101.865H102.096C104.02 5.87905 105.612 7.43032 105.612 9.36317C105.612 11.2705 104.046 12.8473 102.096 12.8473H101.865H97.2718V5.87905Z"></path>
<path fill="#46413C" d="M134.27 5.90447V0.538452H118.141V27.2924H134.27V21.9262H123.534V16.5857H134.27V11.2451H123.534V5.90447H134.27Z"></path>
</svg>
